<?xml version="1.0" encoding="utf-8"?>
<svg xmlns="http://www.w3.org/2000/svg" viewBox="0 0 64 64" width="50" height="50">
  <path fill="#eb9697" d="M11 7H17V10H11z" />
  <path fill="#8b8e98" d="M3 15H61V42H3z" />
  <path fill="#91949b" d="M22.82 42H61V15.64l-.1-.44a1.55 1.55 0 0 0-.08-.2h-11zM5.98 42L15.7 42 42.7 15 32.98 15 5.98 42zM23.25 15L3 35.25 3 40.12 28.11 15 23.25 15z" />
  <path fill="#f9e3ae" d="M61 55H3a2 2 0 0 1-2-2H1a2 2 0 0 1 2-2H61a2 2 0 0 1 2 2h0A2 2 0 0 1 61 55zM61 15H3a2 2 0 0 1-2-2H1a2 2 0 0 1 2-2H61a2 2 0 0 1 2 2h0A2 2 0 0 1 61 15z" />
  <path fill="#bbdef9" d="M3 41H61V51H3z" />
  <path fill="#fff" d="M20,33V23a3,3,0,0,0-3-3H13a3,3,0,0,0-3,3V33a3,3,0,0,0,3,3h4A3,3,0,0,0,20,33Zm-8,0V23a1,1,0,0,1,1-1h4a1,1,0,0,1,1,1V33a1,1,0,0,1-1,1H13A1,1,0,0,1,12,33Z" />
  <path fill="#8d6c9f" d="M12 44a1 1 0 0 0-1 1v2a1 1 0 0 0 2 0V45A1 1 0 0 0 12 44zM7 44a1 1 0 0 0-1 1v2a1 1 0 0 0 2 0V45A1 1 0 0 0 7 44zM17 44a1 1 0 0 0-1 1v2a1 1 0 0 0 2 0V45A1 1 0 0 0 17 44zM22 44a1 1 0 0 0-1 1v2a1 1 0 0 0 2 0V45A1 1 0 0 0 22 44zM27 44a1 1 0 0 0-1 1v2a1 1 0 0 0 2 0V45A1 1 0 0 0 27 44zM32 44a1 1 0 0 0-1 1v2a1 1 0 0 0 2 0V45A1 1 0 0 0 32 44zM37 44a1 1 0 0 0-1 1v2a1 1 0 0 0 2 0V45A1 1 0 0 0 37 44zM42 44a1 1 0 0 0-1 1v2a1 1 0 0 0 2 0V45A1 1 0 0 0 42 44zM47 44a1 1 0 0 0-1 1v2a1 1 0 0 0 2 0V45A1 1 0 0 0 47 44zM52 44a1 1 0 0 0-1 1v2a1 1 0 0 0 2 0V45A1 1 0 0 0 52 44zM57 44a1 1 0 0 0-1 1v2a1 1 0 0 0 2 0V45A1 1 0 0 0 57 44zM7 42h4a1 1 0 0 0 0-2H7a1 1 0 0 0 0 2z" />
  <path fill="#fff" d="M30.55,23.83l1.45-1V34H31a1,1,0,0,0,0,2h4a1,1,0,0,0,0-2H34V21a1,1,0,0,0-1.55-.83l-3,2a1,1,0,0,0,1.11,1.66Z" />
  <path fill="#8d6c9f" d="M62,50.18V15.82A3,3,0,0,0,61,10H18V9a3,3,0,0,0-3-3H13a3,3,0,0,0-3,3v1H3a3,3,0,0,0-1,5.82V50.18A3,3,0,0,0,3,56H61a3,3,0,0,0,1-5.82ZM12,9a1,1,0,0,1,1-1h2a1,1,0,0,1,1,1v1H12ZM3,12H61a1,1,0,0,1,0,2H3a1,1,0,0,1,0-2ZM15,42H60v8H4V16H60V40H15a1,1,0,0,0,0,2ZM61,54H3a1,1,0,0,1,0-2H61a1,1,0,0,1,0,2Z" />
  <path fill="#fff" d="M51 16a1 1 0 0 1 1 1v4a1 1 0 0 1-1 1H47a1 1 0 0 1-1-1 1 1 0 0 0-2 0 3 3 0 0 0 3 3h4a3 3 0 0 0 3-3V17a3 3 0 0 0-.18-1zM46 40V36h5a1 1 0 0 1 1 1v3h2V37a3 3 0 0 0-3-3H46V31a1 1 0 0 1 1-1h3a1 1 0 0 1 1 1v1a1 1 0 0 0 2 0V31a3 3 0 0 0-3-3H47a3 3 0 0 0-3 3v9z" />
</svg>