<?xml version="1.0" encoding="utf-8"?>
<svg xmlns="http://www.w3.org/2000/svg" viewBox="0 0 64 64" width="50" height="50">
  <path fill="#ed7899" d="M31 3A28 28 0 1 0 31 59A28 28 0 1 0 31 3Z" />
  <path fill="#f9e3ae" d="M31,3A28,28,0,1,0,59,31,28,28,0,0,0,31,3Zm0,50A22,22,0,1,1,46.17,15.07l.68.67q.39.4.75.82A22,22,0,0,1,31,53Z" />
  <path fill="#f6d397" d="M31,53A22,22,0,0,1,9,31H7.34a4,4,0,0,0-3.95,4.71,28,28,0,0,0,55.21,0A4,4,0,0,0,54.66,31H53A22,22,0,0,1,31,53Z" />
  <path fill="#8d6c9f" d="M31,2A29,29,0,1,0,60,31,29,29,0,0,0,31,2Zm0,56A27,27,0,1,1,58,31,27,27,0,0,1,31,58Z" />
  <path fill="#faefde" d="M12 31v2a1 1 0 0 0 2 0V31a1 1 0 0 0-2 0zM17 31v2a1 1 0 0 0 2 0V31a1 1 0 0 0-2 0zM22 31v2a1 1 0 0 0 2 0V31a1 1 0 0 0-2 0zM38 31v2a1 1 0 0 0 2 0V31a1 1 0 0 0-2 0zM44 34a1 1 0 0 0 1-1V31a1 1 0 0 0-2 0v2A1 1 0 0 0 44 34zM50 33V31a1 1 0 0 0-2 0v2a1 1 0 0 0 2 0zM31 38a1 1 0 0 0 1-1V35.43l.88-13.35a1.93 1.93 0 0 0-.51-1.46 1.86 1.86 0 0 0-1.08-.56A1 1 0 0 0 31 20a1 1 0 0 0-.23 0 1.88 1.88 0 0 0-1.23.57 1.93 1.93 0 0 0-.51 1.45l.92 14h0V37A1 1 0 0 0 31 38zM31.04 40A2 2 0 1 0 31.04 44 2 2 0 1 0 31.04 40z" />
  <path fill="#8d6c9f" d="M31,54A23,23,0,0,1,31,8a23.27,23.27,0,0,1,3.36.24,1,1,0,0,1-.29,2A21,21,0,1,0,52,31a20.89,20.89,0,0,0-8-16.52,1,1,0,1,1,1.24-1.57A23,23,0,0,1,31,54Z" />
  <path fill="#8d6c9f" d="M41,12.4a1,1,0,0,1-.46-.11,21,21,0,0,0-2.31-1,1,1,0,0,1,.69-1.88,22.92,22.92,0,0,1,2.53,1.11A1,1,0,0,1,41,12.4Z" />
</svg>