<?xml version="1.0" encoding="utf-8"?>
<svg xmlns="http://www.w3.org/2000/svg" viewBox="0 0 64 64" width="50" height="50">
  <path fill="#ced8ed" d="M5 9H59V19H5z" />
  <path fill="#c5e4fa" d="M5 19H59V54H5z" />
  <path fill="#e3f2ff" d="M39.76 55L59 35.76 59 19.08 56.43 19.08 20.51 55 39.76 55zM8.9 55L16.6 55 52.52 19.08 44.82 19.08 8.9 55zM5 53.2L5 54 5.48 54 40.4 19.08 39.12 19.08 5 53.2z" />
  <path fill="#ed7899" d="M31 25H37V49H31z" />
  <path fill="#72caaf" d="M37 31H43V49H37z" />
  <path fill="#ffeb9b" d="M25 41H31V49H25z" />
  <path fill="#85cbf8" d="M19 37H25V49H19z" />
  <path fill="#8d6c9f" d="M55,18H51a1,1,0,0,0,0,2h4a1,1,0,0,0,0-2Z" />
  <path fill="#8d6c9f" d="M57,8H7a3,3,0,0,0-3,3V53a3,3,0,0,0,3,3H57a3,3,0,0,0,3-3V11A3,3,0,0,0,57,8Zm1,45a1,1,0,0,1-1,1H7a1,1,0,0,1-1-1V20H47a1,1,0,0,0,0-2H6V11a1,1,0,0,1,1-1H57a1,1,0,0,1,1,1Z" />
  <path fill="#8d6c9f" d="M20 12a1 1 0 0 0-1 1v2a1 1 0 0 0 2 0V13A1 1 0 0 0 20 12zM15 12a1 1 0 0 0-1 1v2a1 1 0 0 0 2 0V13A1 1 0 0 0 15 12zM10 12a1 1 0 0 0-1 1v2a1 1 0 0 0 2 0V13A1 1 0 0 0 10 12zM35 12a1 1 0 0 0-1 1v2a1 1 0 0 0 2 0V13A1 1 0 0 0 35 12zM40 12a1 1 0 0 0-1 1v2a1 1 0 0 0 2 0V13A1 1 0 0 0 40 12zM45 12a1 1 0 0 0-1 1v2a1 1 0 0 0 2 0V13A1 1 0 0 0 45 12zM50 16a1 1 0 0 0 1-1V13a1 1 0 0 0-2 0v2A1 1 0 0 0 50 16zM55 12a1 1 0 0 0-1 1v2a1 1 0 0 0 2 0V13A1 1 0 0 0 55 12zM25 12a1 1 0 0 0-1 1v2a1 1 0 0 0 2 0V13A1 1 0 0 0 25 12zM30 12a1 1 0 0 0-1 1v2a1 1 0 0 0 2 0V13A1 1 0 0 0 30 12zM49 48H44V31a1 1 0 0 0-1-1H38V25a1 1 0 0 0-1-1H31a1 1 0 0 0-1 1V40H26V37a1 1 0 0 0-1-1H19a1 1 0 0 0-1 1V48H13a1 1 0 0 0 0 2H49a1 1 0 0 0 0-2zM20 38h4V48H20zm6 4h4v6H26zm6-1V26h4V48H32zm6 7V32h4V48z" />
  <path fill="#fff8f8" d="M16.5 23L17.74 25.26 20 26.5 17.74 27.74 16.5 30 15.26 27.74 13 26.5 15.26 25.26 16.5 23zM50.42 24.16L51.27 25.73 52.84 26.58 51.27 27.44 50.42 29 49.56 27.44 48 26.58 49.56 25.73 50.42 24.16zM12.65 39.7L13.23 40.77 14.3 41.35 13.23 41.94 12.65 43 12.06 41.94 11 41.35 12.06 40.77 12.65 39.7z" />
</svg>