<?xml version="1.0" encoding="utf-8"?>
<!-- Generator: Adobe Illustrator 25.4.1, SVG Export Plug-In . SVG Version: 6.00 Build 0)  -->
<svg version="1.1" id="Layer_1" xmlns="http://www.w3.org/2000/svg" xmlns:xlink="http://www.w3.org/1999/xlink" x="0px" y="0px"
	 viewBox="0 0 50 50" style="enable-background:new 0 0 50 50;" xml:space="preserve">
<style type="text/css">
	.st0{fill:#F9E3AE;}
	.st1{fill:#F6D397;}
	.st2{fill:#8D6C9F;}
</style>
<g>
	<path class="st0" d="M23.7,44.5H32L20.2,25.2L32,5.5h-8.3L11.9,25L23.7,44.5z"/>
	<path class="st1" d="M23.7,44.5H32L19.8,25h-8L23.7,44.5z"/>
	<path class="st2" d="M11.3,24.6L23,5.1c0.1-0.2,0.4-0.4,0.7-0.4h8.6c0.4,0,0.8,0.3,0.8,0.8c0,0.1,0,0.3-0.1,0.4L21.5,25L33,44.1
		c0.2,0.4,0.1,0.9-0.3,1.1c-0.1,0.1-0.3,0.1-0.4,0.1h-8.6c-0.3,0-0.5-0.1-0.7-0.4L11.3,25.4C11.2,25.2,11.2,24.8,11.3,24.6z
		 M24.2,43.8h6.8l-11-18.4c-0.1-0.2-0.1-0.5,0-0.8l11-18.4h-6.8L12.9,25L24.2,43.8z"/>
	<path class="st2" d="M33.1,15.4c-0.4,0-0.8-0.3-0.8-0.8c0-0.1,0-0.3,0.1-0.4l5-8.3c0.3-0.3,0.8-0.4,1.1-0.1
		c0.3,0.2,0.4,0.6,0.2,0.9l-5,8.3C33.6,15.2,33.3,15.4,33.1,15.4z M30.5,17.4c0.2-0.4,0.6-0.6,1-0.4c0.4,0.2,0.6,0.6,0.4,1
		c0,0.1-0.1,0.1-0.1,0.2l-1.5,2.4c-0.2,0.4-0.6,0.6-1,0.4c-0.4-0.2-0.6-0.6-0.4-1c0-0.1,0.1-0.1,0.1-0.2L30.5,17.4z M26.9,26.1
		c-0.4,0.2-0.8,0.1-1.1-0.2c-0.2-0.4-0.1-0.8,0.2-1.1c0,0,0,0,0.1,0l1.4-0.8c0.4-0.2,0.8-0.1,1.1,0.2c0.2,0.4,0.1,0.8-0.2,1.1
		c0,0,0,0-0.1,0L26.9,26.1z M33.4,34.1c0.4-0.2,0.9-0.1,1.1,0.3c0.2,0.4,0.1,0.8-0.3,1l-1.4,0.8c-0.4,0.2-0.8,0.1-1.1-0.2
		c-0.2-0.4-0.1-0.8,0.2-1.1c0,0,0,0,0.1,0L33.4,34.1z M34,38.3l1.4-0.8c0.4-0.2,0.8-0.1,1.1,0.2c0.2,0.4,0.1,0.8-0.2,1.1
		c0,0,0,0-0.1,0l-1.4,0.8c-0.4,0.2-0.8,0.1-1.1-0.2C33.4,39,33.5,38.5,34,38.3C33.9,38.3,34,38.3,34,38.3z M35.9,41.6l1.4-0.8
		c0.4-0.2,0.9,0,1,0.4c0.1,0.3,0,0.7-0.2,0.9L36.7,43c-0.4,0.2-0.8,0.1-1.1-0.2C35.4,42.4,35.5,41.9,35.9,41.6
		C35.9,41.6,35.9,41.6,35.9,41.6L35.9,41.6z M30.5,27.6c0.2,0.4,0.1,0.9-0.3,1.1c0,0,0,0,0,0l-1.4,0.8c-0.4,0.2-0.8,0.1-1.1-0.2
		c-0.2-0.4-0.1-0.8,0.2-1.1c0,0,0,0,0.1,0l1.4-0.8C29.8,27.1,30.3,27.2,30.5,27.6z M32.5,31c0.2,0.4,0.1,0.8-0.3,1l-1.4,0.8
		c-0.4,0.2-0.8,0.1-1.1-0.2c-0.2-0.4-0.1-0.8,0.2-1.1c0,0,0,0,0.1,0l1.4-0.8C31.8,30.5,32.3,30.6,32.5,31C32.5,31,32.5,31,32.5,31z"
		/>
</g>
</svg>
