<?xml version="1.0" encoding="utf-8"?>
<svg xmlns="http://www.w3.org/2000/svg" viewBox="0 0 64 64" width="50" height="50">
  <path fill="#ed7899" d="M26 27v10H6c-1.66 0-3-1.34-3-3v-4c0-1.66 1.34-3 3-3H26zM38 37h20c1.657 0 3-1.343 3-3v-4c0-1.657-1.343-3-3-3H38V37zM26 46H6c-1.657 0-3 1.343-3 3v4c0 1.657 1.343 3 3 3h20V46zM61 49v4c0 1.66-1.34 3-3 3H38V46h20C59.66 46 61 47.34 61 49zM6 8c-1.657 0-3 1.343-3 3v4c0 1.657 1.343 3 3 3h52c1.657 0 3-1.343 3-3v-4c0-1.657-1.343-3-3-3H6z" />
  <path fill="#f98cb3" d="M52.64 8L44.7 18 40.2 18 48.14 8zM22.49 46L14.56 56 10.05 56 17.99 46zM38 46L45.03 46 38 54.88zM59.67 27.51L52.16 37H38v-2.96L43.57 27H58C58.62 27 59.19 27.19 59.67 27.51zM61 11v4c0 1.66-1.34 3-3 3h-7.3l7.86-9.94h.01c.11.02.2.04.3.07C60.11 8.5 61 9.64 61 11zM13.52 46l-7.89 9.97c-.43-.05-.83-.19-1.18-.4L12.03 46H13.52zM19.15 37L26 28.35 26 30.24 20.65 37zM43.61 8L35.7 18 34.19 18 42.11 8z" />
  <path fill="#e0678f" d="M26 51H6c-1.486 0-2.71 1.082-2.95 2.5C3.29 54.918 4.514 56 6 56h20V51zM58 51H38v5h20c1.486 0 2.71-1.082 2.95-2.5C60.71 52.082 59.486 51 58 51z" />
  <path fill="#8d6c9f" d="M26 57H6c-2.206 0-4-1.794-4-4v-4c0-2.206 1.794-4 4-4h20c.553 0 1 .447 1 1v10C27 56.553 26.553 57 26 57zM6 47c-1.103 0-2 .897-2 2v4c0 1.103.897 2 2 2h19v-8H6zM58 57H38c-.553 0-1-.447-1-1V46c0-.553.447-1 1-1h20c2.206 0 4 1.794 4 4v4C62 55.206 60.206 57 58 57zM39 55h19c1.103 0 2-.897 2-2v-4c0-1.103-.897-2-2-2H39V55zM26 38H6c-2.206 0-4-1.794-4-4v-4c0-2.206 1.794-4 4-4h20c.553 0 1 .447 1 1v10C27 37.553 26.553 38 26 38zM6 28c-1.103 0-2 .897-2 2v4c0 1.103.897 2 2 2h19v-8H6zM58 38H38c-.553 0-1-.447-1-1V27c0-.553.447-1 1-1h20c2.206 0 4 1.794 4 4v4C62 36.206 60.206 38 58 38zM39 36h19c1.103 0 2-.897 2-2v-4c0-1.103-.897-2-2-2H39V36zM58 19H6c-2.206 0-4-1.794-4-4v-4c0-2.206 1.794-4 4-4h52c2.206 0 4 1.794 4 4v4C62 17.206 60.206 19 58 19zM6 9c-1.103 0-2 .897-2 2v4c0 1.103.897 2 2 2h52c1.103 0 2-.897 2-2v-4c0-1.103-.897-2-2-2H6z" />
  <path fill="#8d6c9f" d="M7 53c-.553 0-1-.447-1-1v-2c0-.553.447-1 1-1s1 .447 1 1v2C8 52.553 7.553 53 7 53zM12 53c-.553 0-1-.447-1-1v-2c0-.553.447-1 1-1s1 .447 1 1v2C13 52.553 12.553 53 12 53zM17 53c-.553 0-1-.447-1-1v-2c0-.553.447-1 1-1s1 .447 1 1v2C18 52.553 17.553 53 17 53zM22 53c-.553 0-1-.447-1-1v-2c0-.553.447-1 1-1s1 .447 1 1v2C23 52.553 22.553 53 22 53zM42 53c-.553 0-1-.447-1-1v-2c0-.553.447-1 1-1s1 .447 1 1v2C43 52.553 42.553 53 42 53zM47 53c-.553 0-1-.447-1-1v-2c0-.553.447-1 1-1s1 .447 1 1v2C48 52.553 47.553 53 47 53zM52 53c-.553 0-1-.447-1-1v-2c0-.553.447-1 1-1s1 .447 1 1v2C53 52.553 52.553 53 52 53zM57 53c-.553 0-1-.447-1-1v-2c0-.553.447-1 1-1s1 .447 1 1v2C58 52.553 57.553 53 57 53z" />
</svg>