<?xml version="1.0" encoding="utf-8"?>
<svg xmlns="http://www.w3.org/2000/svg" viewBox="0 0 64 64" width="50" height="50">
  <path fill="#c2cde7" d="M54 47L13 47 10 19 60 19 54 47z" />
  <path fill="#f9e3ae" d="M10 15H62V19H10z" />
  <path fill="#f283a5" d="M3 3A2 2 0 1 0 3 7A2 2 0 1 0 3 3Z" />
  <path fill="#ed7899" d="M25 51A4 4 0 1 0 25 59A4 4 0 1 0 25 51Z" />
  <path fill="#f283a5" d="M25 53A2 2 0 1 0 25 57A2 2 0 1 0 25 53Z" />
  <path fill="#ed7899" d="M45 51A4 4 0 1 0 45 59A4 4 0 1 0 45 51Z" />
  <path fill="#ced8ed" d="M22 47L12 47 10 19 21 19 22 47z" />
  <path fill="#b5c4e0" d="M10,19v2a3,3,0,0,0,3,3H44L42,47H54l6-28Z" />
  <path fill="#f283a5" d="M45 53A2 2 0 1 0 45 57A2 2 0 1 0 45 53Z" />
  <path fill="#8d6c9f" d="M12 22a1 1 0 0 0-1 1v2a1 1 0 0 0 2 0V23A1 1 0 0 0 12 22zM17 22a1 1 0 0 0-1 1v2a1 1 0 0 0 2 0V23A1 1 0 0 0 17 22zM22 26a1 1 0 0 0 1-1V23a1 1 0 0 0-2 0v2A1 1 0 0 0 22 26zM27 26a1 1 0 0 0 1-1V23a1 1 0 0 0-2 0v2A1 1 0 0 0 27 26zM40 25a1 1 0 0 0 2 0V23a1 1 0 0 0-2 0zM46 26a1 1 0 0 0 1-1V23a1 1 0 0 0-2 0v2A1 1 0 0 0 46 26zM51 26a1 1 0 0 0 1-1V23a1 1 0 0 0-2 0v2A1 1 0 0 0 51 26zM56 26a1 1 0 0 0 1-1V23a1 1 0 0 0-2 0v2A1 1 0 0 0 56 26z" />
  <path fill="#8d6c9f" d="M61,14H10.72l-.28-3.55a7,7,0,0,0-4.49-6,3,3,0,1,0-.37,2,5,5,0,0,1,2.86,4.1l2.79,35.26a11.07,11.07,0,0,0,8.85,9.92A5,5,0,0,0,29.9,56H40.1a5,5,0,1,0,0-2H29.9a5,5,0,0,0-9.72-.25A9.08,9.08,0,0,1,13.72,48H52.38a3,3,0,0,0,2.93-2.37L60.81,20H61a3,3,0,0,0,0-6ZM3,6.2A1.2,1.2,0,1,1,4.2,5,1.2,1.2,0,0,1,3,6.2ZM45,51.81A3.19,3.19,0,1,1,41.81,55,3.19,3.19,0,0,1,45,51.81Zm-20,0A3.16,3.16,0,1,1,21.84,55,3.16,3.16,0,0,1,25,51.84ZM61,18H41.06a1,1,0,0,0,0,2h17.7l-5.4,25.21a1,1,0,0,1-1,.79H13.26c0-.1,0-.19,0-.29L11.19,20H27a1,1,0,0,0,0-2H11l-.16-2H61a1,1,0,0,1,0,2Z" />
  <path fill="#faefde" d="M37 3L37 32 41 28 45 32 34 43 23 32 27 28 31 32 31 3 37 3z" />
  <path fill="#8d6c9f" d="M34.71,43.71l11-11a1,1,0,0,0,0-1.41l-4-4a1,1,0,0,0-1.41,0L38,29.59V3a1,1,0,0,0-1-1H31a1,1,0,0,0-1,1V29.59l-2.29-2.29a1,1,0,0,0-1.41,0l-4,4a1,1,0,0,0,0,1.41l11,11A1,1,0,0,0,34.71,43.71ZM24.41,32,27,29.41l3.29,3.29A1,1,0,0,0,32,32V4h4V32a1,1,0,0,0,1.71.71L41,29.41,43.59,32,34,41.59Z" />
</svg>