<?xml version="1.0" encoding="utf-8"?>
<svg xmlns="http://www.w3.org/2000/svg" viewBox="0 0 64 64" width="50" height="50">
  <path fill="#72caaf" d="M60.28,34.83L34.83,60.28c-1.56,1.57-4.1,1.57-5.66,0L3.72,34.83c-1.57-1.56-1.57-4.1,0-5.66 L29.17,3.72c1.56-1.57,4.1-1.57,5.66,0l6.82,6.82l3.22,3.22L47,15.89l8.03,8.03l5.25,5.25C61.85,30.73,61.85,33.27,60.28,34.83z" />
  <path fill="#66bfa1" d="M60.28,34.83L34.83,60.28C33.27,61.85,34,62,31,62l0,0c-1.123-1.063-1.147-2.843-0.054-3.936 l27.118-27.118C59.157,29.853,60.937,29.877,62,31l0,0C62,33,61.85,33.27,60.28,34.83z" />
  <path fill="#faefde" d="M20 29A3 3 0 1 0 20 35 3 3 0 1 0 20 29zM32 29A3 3 0 1 0 32 35 3 3 0 1 0 32 29zM44 29A3 3 0 1 0 44 35 3 3 0 1 0 44 29z" />
  <path fill="#8d6c9f" d="M60.991,28.464L35.535,3.009c-1.949-1.949-5.122-1.949-7.071,0L3.008,28.464 c-1.949,1.95-1.949,5.122,0,7.071l25.456,25.456c0.975,0.975,2.255,1.462,3.535,1.462c1.281,0,2.561-0.488,3.536-1.462 l25.456-25.456C62.94,33.586,62.94,30.414,60.991,28.464z M59.577,34.122L34.121,59.577c-1.17,1.169-3.073,1.17-4.243,0 L4.422,34.122c-1.169-1.17-1.169-3.073,0-4.243L29.878,4.423C30.463,3.838,31.231,3.546,32,3.546c0.768,0,1.536,0.292,2.121,0.877 l25.456,25.456C60.747,31.048,60.747,32.952,59.577,34.122z" />
  <path fill="#8d6c9f" d="M20 28c-2.206 0-4 1.794-4 4s1.794 4 4 4 4-1.794 4-4S22.206 28 20 28zM20 34c-1.103 0-2-.897-2-2s.897-2 2-2 2 .897 2 2S21.103 34 20 34zM36 32c0-2.206-1.794-4-4-4s-4 1.794-4 4 1.794 4 4 4S36 34.206 36 32zM30 32c0-1.103.897-2 2-2s2 .897 2 2-.897 2-2 2S30 33.103 30 32zM44 28c-2.206 0-4 1.794-4 4s1.794 4 4 4 4-1.794 4-4S46.206 28 44 28zM44 34c-1.103 0-2-.897-2-2s.897-2 2-2 2 .897 2 2S45.103 34 44 34zM32.125 54.96c-.391-.391-1.023-.391-1.414 0s-.391 1.023 0 1.414l1.414 1.414c.195.195.451.293.707.293s.512-.098.707-.293c.391-.391.391-1.023 0-1.414L32.125 54.96zM42.732 44.354c-.391-.391-1.023-.391-1.414 0s-.391 1.023 0 1.414l1.415 1.415c.195.195.451.293.707.293s.512-.098.707-.293c.391-.391.391-1.023 0-1.414L42.732 44.354zM46.268 40.818c-.391-.391-1.023-.391-1.414 0s-.391 1.023 0 1.414l1.415 1.415c.195.195.451.293.707.293s.512-.098.707-.293c.391-.391.391-1.023 0-1.414L46.268 40.818zM49.803 37.283c-.391-.391-1.023-.391-1.414 0s-.391 1.023 0 1.414l1.414 1.414c.195.195.451.293.707.293s.512-.098.707-.293c.391-.391.391-1.023 0-1.414L49.803 37.283zM53.339 33.747c-.391-.391-1.023-.391-1.414 0s-.391 1.023 0 1.414l1.414 1.414c.195.195.451.293.707.293s.512-.098.707-.293c.391-.391.391-1.023 0-1.414L53.339 33.747zM56.875 30.211c-.391-.391-1.023-.391-1.414 0s-.391 1.023 0 1.414l1.414 1.414c.195.195.451.293.707.293s.512-.098.707-.293c.391-.391.391-1.023 0-1.414L56.875 30.211zM35.661 51.425c-.391-.391-1.023-.391-1.414 0s-.391 1.023 0 1.414l1.414 1.414c.195.195.451.293.707.293s.512-.098.707-.293c.391-.391.391-1.023 0-1.414L35.661 51.425zM39.197 47.889c-.391-.391-1.023-.391-1.414 0s-.391 1.023 0 1.414l1.414 1.414c.195.195.451.293.707.293s.512-.098.707-.293c.391-.391.391-1.023 0-1.414L39.197 47.889z" />
</svg>