<?xml version="1.0" encoding="utf-8"?>
<svg xmlns="http://www.w3.org/2000/svg" viewBox="0 0 64 64" width="50" height="50">
  <path fill="#c2cde7" d="M11.412,57h39.176C55.777,51.918,59,44.837,59,37C59,21.536,46.464,9,31,9S3,21.536,3,37 C3,44.837,6.223,51.918,11.412,57z" />
  <path fill="#acb7d0" d="M11.413,57h39.174c4.127-4.042,7.013-9.347,8.019-15.294C59.022,39.25,57.152,37,54.661,37H7.339 c-2.491,0-4.361,2.25-3.945,4.706C4.4,47.653,7.286,52.958,11.413,57z" />
  <path fill="#85cbf8" d="M31,55c6.832,0,14,1,16.971-4C51.113,47.196,53,42.319,53,37c0-12.15-9.85-22-22-22S9,24.85,9,37 c0,5.319,1.887,10.196,5.029,14C17,57,24.168,55,31,55z" />
  <path fill="#f9dd8f" d="M55,59H7c-1.105,0-2-0.895-2-2v0c0-1.105,0.895-2,2-2h48c1.105,0,2,0.895,2,2v0 C57,58.105,56.105,59,55,59z" />
  <path fill="#faefde" d="M31,40c1.654,0,3-1.346,3-3c0-0.462-0.113-0.894-0.301-1.285l8.008-8.008 c0.391-0.391,0.391-1.023,0-1.414s-1.023-0.391-1.414,0l-8.008,8.008C31.894,34.113,31.462,34,31,34c-1.654,0-3,1.346-3,3 S29.346,40,31,40z" />
  <path fill="#8d6c9f" d="M31 19c.553 0 1-.448 1-1v-2c0-.552-.447-1-1-1s-1 .448-1 1v2C30 18.552 30.447 19 31 19zM48.87 32.712c.119.447.523.742.965.742.086 0 .173-.011.26-.035l1.932-.518c.533-.143.85-.691.707-1.225-.142-.534-.69-.85-1.225-.707l-1.932.518C49.044 31.63 48.728 32.179 48.87 32.712zM9.974 32.901l1.932.518c.087.023.174.035.26.035.441 0 .846-.295.965-.742.143-.533-.174-1.082-.707-1.225l-1.932-.518c-.533-.143-1.082.174-1.225.707S9.44 32.758 9.974 32.901zM44.789 24.711c.256 0 .512-.098.707-.293l1.414-1.414c.391-.391.391-1.023 0-1.414s-1.023-.391-1.414 0l-1.414 1.414c-.391.391-.391 1.023 0 1.414C44.277 24.614 44.533 24.711 44.789 24.711zM47.021 28.25c.186.321.521.5.867.5.17 0 .342-.043.499-.134l1.731-1c.479-.276.643-.888.366-1.366-.277-.479-.891-.643-1.366-.366l-1.731 1C46.909 27.16 46.745 27.772 47.021 28.25zM24.987 18.923c.119.447.523.742.965.742.086 0 .173-.011.26-.035.533-.143.85-.691.707-1.225l-.518-1.932c-.143-.534-.689-.85-1.225-.707-.533.143-.85.691-.707 1.225L24.987 18.923zM40.25 21.479c.157.091.329.134.499.134.346 0 .682-.179.867-.5l1-1.732c.276-.478.112-1.09-.366-1.366s-1.09-.113-1.366.366l-1 1.732C39.607 20.59 39.771 21.202 40.25 21.479zM20.384 21.112c.186.321.521.5.867.5.17 0 .342-.043.499-.134.479-.276.643-.888.366-1.366l-1-1.732c-.277-.479-.89-.643-1.366-.366-.479.276-.643.888-.366 1.366L20.384 21.112zM35.788 19.63c.087.023.174.035.26.035.441 0 .846-.295.965-.742l.518-1.932c.143-.534-.174-1.082-.707-1.225-.53-.142-1.082.174-1.225.707l-.518 1.932C34.938 18.939 35.255 19.488 35.788 19.63zM16.504 24.418c.195.195.451.293.707.293s.512-.098.707-.293c.391-.391.391-1.023 0-1.414l-1.414-1.414c-.391-.391-1.023-.391-1.414 0s-.391 1.023 0 1.414L16.504 24.418zM11.881 27.616l1.731 1c.157.091.329.134.499.134.346 0 .682-.179.867-.5.276-.478.112-1.09-.366-1.366l-1.731-1c-.478-.277-1.09-.113-1.366.366C11.238 26.728 11.402 27.34 11.881 27.616z" />
  <path fill="#ed7899" d="M23 46h16c.553 0 1-.448 1-1s-.447-1-1-1H23c-.553 0-1 .448-1 1S22.447 46 23 46zM35 48h-8c-.553 0-1 .448-1 1s.447 1 1 1h8c.553 0 1-.448 1-1S35.553 48 35 48z" />
  <path fill="#8d6c9f" d="M55,54h-0.514c0.016-0.021,0.034-0.039,0.05-0.061c3.966-5.5,5.88-12.279,5.387-19.09 C58.886,20.498,47.272,8.981,32.908,8.061c-8.107-0.523-15.838,2.244-21.744,7.783C5.34,21.307,2,29.018,2,37 c0,6.123,1.889,11.979,5.461,16.934C7.478,53.957,7.498,53.977,7.515,54H7c-1.654,0-3,1.346-3,3s1.346,3,3,3h48 c1.654,0,3-1.346,3-3S56.654,54,55,54z M9.084,52.765C5.758,48.152,4,42.7,4,37c0-7.541,3.03-14.536,8.532-19.697 c5.061-4.747,11.554-7.304,18.449-7.304c0.597,0,1.197,0.02,1.8,0.058c13.37,0.857,24.181,11.577,25.146,24.937 c0.465,6.436-1.269,12.582-5.016,17.776C52.357,53.54,51.448,54,50.48,54h-3.997C51.282,49.647,54,43.568,54,37 c0-0.552-0.447-1-1-1s-1,0.448-1,1c0,6.668-3.062,12.792-8.4,16.802c-0.074,0.055-0.123,0.129-0.176,0.198H18.68 C13.243,50.051,10,43.723,10,37c0-0.552-0.447-1-1-1s-1,0.448-1,1c0,6.502,2.767,12.669,7.514,17H11.52 C10.552,54,9.641,53.539,9.084,52.765z M55,58H7c-0.552,0-1-0.449-1-1s0.448-1,1-1h4.52h6.81c0.008,0,0.015,0.003,0.023,0.003 c0.005,0,0.009-0.003,0.014-0.003H50.48H55c0.552,0,1,0.449,1,1S55.552,58,55,58z" />
</svg>