<?xml version="1.0" encoding="utf-8"?>
<svg xmlns="http://www.w3.org/2000/svg" viewBox="0 0 64 64" width="50" height="50">
  <path fill="#f9e3ae" d="M20.63 57L31.27 57 16.09 32.25 31.27 7 20.63 7 5.45 32 20.63 57z" />
  <path fill="#f6d397" d="M20.63 57L31.27 57 15.63 32 5.45 32 20.63 57z" />
  <path fill="#f9e3ae" d="M40.63 57L51.27 57 36.09 32.25 51.27 7 40.63 7 25.45 32 40.63 57z" />
  <path fill="#f6d397" d="M40.63 57L51.27 57 35.63 32 25.45 32 40.63 57z" />
  <path fill="#8d6c9f" d="M24.77,31.49l15-25A1,1,0,0,1,40.63,6h11a1,1,0,0,1,.86,1.51L37.8,32,52.49,56.49A1,1,0,0,1,51.63,58h-11a1,1,0,0,1-.86-.49l-15-25A1,1,0,0,1,24.77,31.49ZM41.2,56h8.67L35.77,32.51a1,1,0,0,1,0-1L49.86,8H41.2L26.8,32Z" />
  <path fill="#8d6c9f" d="M52.61 19.69a1 1 0 0 1-.86-1.51L58.14 7.54a1 1 0 0 1 1.71 1L53.47 19.21A1 1 0 0 1 52.61 19.69zM49.27 22.32a1 1 0 1 1 1.71 1l-1.86 3.1a1 1 0 1 1-1.71-1zM4.77 31.49l15-25A1 1 0 0 1 20.63 6h11a1 1 0 0 1 .86 1.51L17.8 32 32.49 56.49A1 1 0 0 1 31.63 58h-11a1 1 0 0 1-.86-.49l-15-25A1 1 0 0 1 4.77 31.49zM21.2 56h8.67L15.77 32.51a1 1 0 0 1 0-1L29.86 8H21.2L6.8 32zM44.76 33.38a1 1 0 1 1-1-1.73l1.73-1a1 1 0 1 1 1 1.73zM53 43.63a1 1 0 0 1 1 1.73l-1.73 1a1 1 0 1 1-1-1.73zM53.76 49l1.73-1a1 1 0 1 1 1 1.73l-1.73 1a1 1 0 1 1-1-1.73zM56.26 53.29l1.73-1A1 1 0 0 1 59 54l-1.73 1a1 1 0 1 1-1-1.73zM49.36 35.34A1 1 0 0 1 49 36.71l-1.73 1a1 1 0 1 1-1-1.73L48 35A1 1 0 0 1 49.36 35.34zM51.86 39.67A1 1 0 0 1 51.5 41l-1.73 1a1 1 0 1 1-1-1.73l1.73-1A1 1 0 0 1 51.86 39.67z" />
</svg>