<?xml version="1.0" encoding="utf-8"?>
<svg xmlns="http://www.w3.org/2000/svg" viewBox="0 0 64 64" width="50" height="50">
  <path fill="#c5e4fa" d="M1 13H55V53H1z" />
  <path fill="#e3f2ff" d="M34.11 53L55 32.11 55 14 52.21 14 13.21 53 34.11 53zM1.29 53L9.64 53 48.64 14 40.29 14 1.29 53zM1 49.71L36.71 14 32.75 14 1 45.75 1 49.71z" />
  <rect width="54" height="6" x="1" y="7" fill="#acb7d0" rx="2" ry="2" />
  <path fill="#fff" d="M34,48.27a2,2,0,0,1,0-2.54C36.17,43,41.78,37,48,37s11.83,6,14,8.73a2,2,0,0,1,0,2.54C59.83,51,54.22,57,48,57S36.17,51,34,48.27Z" />
  <path fill="#faefde" d="M34,48.27a2,2,0,0,1,0-2.54C36.17,43,41.78,37,48,37s11.83,6,14,8.73a2,2,0,0,1,0,2.54C59.83,51,54.22,57,48,57S36.17,51,34,48.27Z" />
  <path fill="#fff7f0" d="M62,46.56l0-.06S56.84,37,48,37s-14,9.5-14,9.5l0,.06A70.73,70.73,0,0,0,48,48,70.73,70.73,0,0,0,62,46.56Z" />
  <path fill="#85cbf8" d="M48 42A5 5 0 1 0 48 52A5 5 0 1 0 48 42Z" />
  <path fill="#8d6c9f" d="M15 46a1 1 0 0 0-1 1v2a1 1 0 0 0 2 0V47A1 1 0 0 0 15 46zM10 46a1 1 0 0 0-1 1v2a1 1 0 0 0 2 0V47A1 1 0 0 0 10 46zM5 46a1 1 0 0 0-1 1v2a1 1 0 0 0 2 0V47A1 1 0 0 0 5 46zM20 46a1 1 0 0 0-1 1v2a1 1 0 0 0 2 0V47A1 1 0 0 0 20 46zM25 46a1 1 0 0 0-1 1v2a1 1 0 0 0 2 0V47A1 1 0 0 0 25 46zM30 46a1 1 0 0 0-1 1v2a1 1 0 0 0 2 0V47A1 1 0 0 0 30 46zM19 22h4a1 1 0 0 0 0-2H19a1 1 0 0 0 0 2zM27 22H44a1 1 0 0 0 0-2H27a1 1 0 0 0 0 2zM19 30H44a1 1 0 0 0 0-2H19a1 1 0 0 0 0 2zM34 38a1 1 0 0 0 0-2H19a1 1 0 0 0 0 2zM14.29 18.29L11 21.59 9.71 20.29a1 1 0 0 0-1.41 1.41l2 2a1 1 0 0 0 1.41 0l4-4a1 1 0 0 0-1.41-1.41zM14.29 26.29L11 29.59 9.71 28.29a1 1 0 0 0-1.41 1.41l2 2a1 1 0 0 0 1.41 0l4-4a1 1 0 0 0-1.41-1.41zM14.29 34.29L11 37.59 9.71 36.29a1 1 0 0 0-1.41 1.41l2 2a1 1 0 0 0 1.41 0l4-4a1 1 0 0 0-1.41-1.41z" />
  <path fill="#8d6c9f" d="M62.8,45.1A32.49,32.49,0,0,0,56,38.77V9a3,3,0,0,0-3-3H3A3,3,0,0,0,0,9V51a3,3,0,0,0,3,3H38.32C41,56.14,44.39,58,48,58c6.67,0,12.57-6.36,14.8-9.1A3,3,0,0,0,62.8,45.1ZM2,9A1,1,0,0,1,3,8H53a1,1,0,0,1,1,1v3H2ZM3,52a1,1,0,0,1-1-1V14H54V37.59A13.13,13.13,0,0,0,48,36c-6.67,0-12.57,6.36-14.8,9.1a3,3,0,0,0,0,3.8A36,36,0,0,0,36,52Zm58.25-4.36C59.2,50.15,53.81,56,48,56a12.58,12.58,0,0,1-6.74-2.32A23.77,23.77,0,0,1,39,52a34.23,34.23,0,0,1-4.27-4.36,1,1,0,0,1,0-1.28C36.8,43.85,42.19,38,48,38s11.2,5.85,13.25,8.36A1,1,0,0,1,61.25,47.64Z" />
  <path fill="#8d6c9f" d="M48,41a6,6,0,1,0,6,6A6,6,0,0,0,48,41Zm0,10a4,4,0,1,1,4-4A4,4,0,0,1,48,51Z" />
</svg>