<?xml version="1.0" encoding="utf-8"?>
<svg xmlns="http://www.w3.org/2000/svg" viewBox="0 0 64 64" width="50" height="50">
  <path fill="#7bbeeb" d="M58,55H4c-1.657,0-3-1.343-3-3V14c0-1.657,1.343-3,3-3h14.172c0.53,0,1.039,0.211,1.414,0.586L23,15h35c1.657,0,3,1.343,3,3v34C61,53.657,59.657,55,58,55z" />
  <polygon fill="#85cbf8" points="23,16 1.5,16 1.5,11 19,11" />
  <path fill="#ace3ff" d="M61,52c0,1.657-1.343,3-3,3H4.333C2.492,55,1,53.657,1,52l0-28c0-1.657,1.492-3,3.333-3h53.333C59.508,21,61,22.343,61,24V52z" />
  <path fill="#85cbf8" d="M4,55h54c1.657,0,3-1.343,3-3v-7H1v7C1,53.657,2.343,55,4,55z" />
  <path fill="#8d6c9f" d="M58,56H4c-2.206,0-4-1.794-4-4V14c0-2.206,1.794-4,4-4h14.17c0.802,0,1.557,0.312,2.124,0.88l3.12,3.12H58c2.206,0,4,1.794,4,4v34C62,54.206,60.206,56,58,56z M4,12c-1.103,0-2,0.897-2,2v38c0,1.103,0.897,2,2,2h54c1.103,0,2-0.897,2-2V18c0-1.103-0.897-2-2-2H23c-0.265,0-0.52-0.105-0.707-0.293l-3.413-3.413C18.69,12.104,18.438,12,18.17,12H4z" />
  <path fill="#8d6c9f" d="M49,46H1c-0.552,0-1-0.447-1-1s0.448-1,1-1h48c0.552,0,1,0.447,1,1S49.552,46,49,46z" />
  <path fill="#8d6c9f" d="M57,46h-4c-0.552,0-1-0.447-1-1s0.448-1,1-1h4c0.552,0,1,0.447,1,1S57.552,46,57,46z" />
  <path fill="#8d6c9f" d="M16,52c-0.552,0-1-0.447-1-1v-2c0-0.553,0.448-1,1-1s1,0.447,1,1v2C17,51.553,16.552,52,16,52z" />
  <path fill="#8d6c9f" d="M21,52c-0.552,0-1-0.447-1-1v-2c0-0.553,0.448-1,1-1s1,0.447,1,1v2C22,51.553,21.552,52,21,52z" />
  <path fill="#8d6c9f" d="M26,52c-0.552,0-1-0.447-1-1v-2c0-0.553,0.448-1,1-1s1,0.447,1,1v2C27,51.553,26.552,52,26,52z" />
  <path fill="#8d6c9f" d="M31,52c-0.552,0-1-0.447-1-1v-2c0-0.553,0.448-1,1-1s1,0.447,1,1v2C32,51.553,31.552,52,31,52z" />
  <path fill="#8d6c9f" d="M36,52c-0.552,0-1-0.447-1-1v-2c0-0.553,0.448-1,1-1s1,0.447,1,1v2C37,51.553,36.552,52,36,52z" />
  <path fill="#8d6c9f" d="M41,52c-0.552,0-1-0.447-1-1v-2c0-0.553,0.448-1,1-1s1,0.447,1,1v2C42,51.553,41.552,52,41,52z" />
  <path fill="#8d6c9f" d="M46,52c-0.552,0-1-0.447-1-1v-2c0-0.553,0.448-1,1-1s1,0.447,1,1v2C47,51.553,46.552,52,46,52z" />
  <path fill="#8d6c9f" d="M51,52c-0.552,0-1-0.447-1-1v-2c0-0.553,0.448-1,1-1s1,0.447,1,1v2C52,51.553,51.552,52,51,52z" />
  <path fill="#8d6c9f" d="M56,52c-0.552,0-1-0.447-1-1v-2c0-0.553,0.448-1,1-1s1,0.447,1,1v2C57,51.553,56.552,52,56,52z" />
  <path fill="#8d6c9f" d="M11,52c-0.552,0-1-0.447-1-1v-2c0-0.553,0.448-1,1-1s1,0.447,1,1v2C12,51.553,11.552,52,11,52z" />
  <path fill="#8d6c9f" d="M6,52c-0.552,0-1-0.447-1-1v-2c0-0.553,0.448-1,1-1s1,0.447,1,1v2C7,51.553,6.552,52,6,52z" />
  <path fill="#8d6c9f" d="M61,31c-0.552,0-1-0.447-1-1v-6c0-1.103-0.897-2-2-2H4c-1.103,0-2,0.897-2,2v6c0,0.553-0.448,1-1,1s-1-0.447-1-1v-6c0-2.206,1.794-4,4-4h54c2.206,0,4,1.794,4,4v6C62,30.553,61.552,31,61,31z" />
</svg>