<?xml version="1.0" encoding="utf-8"?>
<svg xmlns="http://www.w3.org/2000/svg" viewBox="0 0 64 64" width="50" height="50">
  <path fill="#f9e3ae" d="M46 57L35.36 57 50.55 32.25 35.36 7 46 7 61.18 32 46 57z" />
  <path fill="#f6d397" d="M46 57L35.36 57 51 32 61.18 32 46 57z" />
  <path fill="#f9e3ae" d="M26 57L15.36 57 30.55 32.25 15.36 7 26 7 41.18 32 26 57z" />
  <path fill="#f6d397" d="M26 57L15.36 57 31 32 41.18 32 26 57z" />
  <path fill="#8d6c9f" d="M41.86,31.49l-15-25A1,1,0,0,0,26,6H15a1,1,0,0,0-.86,1.51L28.83,32,14.14,56.49A1,1,0,0,0,15,58H26a1,1,0,0,0,.86-.49l15-25A1,1,0,0,0,41.86,31.49ZM25.43,56H16.77L30.86,32.51a1,1,0,0,0,0-1L16.77,8h8.67l14.4,24Z" />
  <path fill="#8d6c9f" d="M14 19.69a1 1 0 0 0 .86-1.51L8.49 7.54a1 1 0 0 0-1.71 1l6.39 10.64A1 1 0 0 0 14 19.69zM17.36 22.32a1 1 0 0 0-1.71 1l1.86 3.1a1 1 0 1 0 1.71-1zM61.86 31.49l-15-25A1 1 0 0 0 46 6H35a1 1 0 0 0-.86 1.51L48.83 32 34.14 56.49A1 1 0 0 0 35 58H46a1 1 0 0 0 .86-.49l15-25A1 1 0 0 0 61.86 31.49zM45.43 56H36.77L50.86 32.51a1 1 0 0 0 0-1L36.77 8h8.67l14.4 24zM21.87 33.38a1 1 0 1 0 1-1.73l-1.73-1a1 1 0 1 0-1 1.73zM13.63 43.63a1 1 0 0 0-1 1.73l1.73 1a1 1 0 1 0 1-1.73zM12.87 49l-1.73-1a1 1 0 1 0-1 1.73l1.73 1a1 1 0 1 0 1-1.73zM10.37 53.29l-1.73-1a1 1 0 0 0-1 1.73l1.73 1a1 1 0 1 0 1-1.73zM17.27 35.34a1 1 0 0 0 .37 1.37l1.73 1a1 1 0 0 0 1-1.73l-1.73-1A1 1 0 0 0 17.27 35.34zM14.77 39.67A1 1 0 0 0 15.13 41l1.73 1a1 1 0 1 0 1-1.73l-1.73-1A1 1 0 0 0 14.77 39.67z" />
</svg>