<?xml version="1.0" encoding="utf-8"?>
<svg xmlns="http://www.w3.org/2000/svg" viewBox="0 0 64 64" width="50" height="50">
  <path fill="#ced8ed" d="M5 9H59V19H5z" />
  <path fill="#85cbf8" d="M5 19H59V55H5z" />
  <path fill="#f9efde" d="M13 39A2 2 0 1 0 13 43 2 2 0 1 0 13 39zM21 42A2 2 0 1 0 21 46 2 2 0 1 0 21 42zM32 33A2 2 0 1 0 32 37 2 2 0 1 0 32 33zM40 39A2 2 0 1 0 40 43 2 2 0 1 0 40 39zM49 27A2 2 0 1 0 49 31 2 2 0 1 0 49 27z" />
  <path fill="#8d6c9f" d="M55 18H51a1 1 0 0 0 0 2h4a1 1 0 0 0 0-2zM20 12a1 1 0 0 0-1 1v2a1 1 0 0 0 2 0V13A1 1 0 0 0 20 12zM15 12a1 1 0 0 0-1 1v2a1 1 0 0 0 2 0V13A1 1 0 0 0 15 12zM10 12a1 1 0 0 0-1 1v2a1 1 0 0 0 2 0V13A1 1 0 0 0 10 12zM35 12a1 1 0 0 0-1 1v2a1 1 0 0 0 2 0V13A1 1 0 0 0 35 12zM40 12a1 1 0 0 0-1 1v2a1 1 0 0 0 2 0V13A1 1 0 0 0 40 12zM45 12a1 1 0 0 0-1 1v2a1 1 0 0 0 2 0V13A1 1 0 0 0 45 12zM51 15V13a1 1 0 0 0-2 0v2a1 1 0 0 0 2 0zM55 12a1 1 0 0 0-1 1v2a1 1 0 0 0 2 0V13A1 1 0 0 0 55 12zM25 12a1 1 0 0 0-1 1v2a1 1 0 0 0 2 0V13A1 1 0 0 0 25 12zM30 12a1 1 0 0 0-1 1v2a1 1 0 0 0 2 0V13A1 1 0 0 0 30 12z" />
  <path fill="#8d6c9f" d="M57,8H7a3,3,0,0,0-3,3V53a3,3,0,0,0,3,3H57a3,3,0,0,0,3-3V11A3,3,0,0,0,57,8Zm1,45a1,1,0,0,1-1,1H7a1,1,0,0,1-1-1V49.41l5.71-5.71a2.94,2.94,0,0,0,3.57-.78l2.72,1s0,0,0,.05a3,3,0,0,0,6,0,3,3,0,0,0-.19-1l6.64-5.43a3,3,0,0,0,3.21-.06l3.49,2.62A3,3,0,0,0,37,41a3,3,0,1,0,5.5-1.66l5.62-7.49A3,3,0,0,0,49,32a3,3,0,1,0-2.5-1.34l-5.62,7.49a2.89,2.89,0,0,0-2.55.36l-3.49-2.62A3,3,0,0,0,35,35a3,3,0,0,0-6,0,3,3,0,0,0,.19,1l-6.64,5.43a2.95,2.95,0,0,0-3.83.63l-2.72-1s0,0,0-.05a3,3,0,0,0-6,0,3,3,0,0,0,.3,1.29L6,46.59V20H47a1,1,0,0,0,0-2H6V11a1,1,0,0,1,1-1H57a1,1,0,0,1,1,1ZM11.83,41A1.17,1.17,0,1,1,13,42.17,1.17,1.17,0,0,1,11.83,41Zm10.33,3A1.17,1.17,0,1,1,21,42.83,1.17,1.17,0,0,1,22.17,44ZM32,36.15A1.15,1.15,0,1,1,33.15,35,1.15,1.15,0,0,1,32,36.15ZM41.17,41A1.17,1.17,0,1,1,40,39.83,1.17,1.17,0,0,1,41.17,41Zm6.67-12A1.17,1.17,0,1,1,49,30.17,1.17,1.17,0,0,1,47.83,29Z" />
</svg>