<?xml version="1.0" encoding="utf-8"?>
<svg xmlns="http://www.w3.org/2000/svg" width="50" height="50" viewBox="0 0 64 64">
  <rect width="38.983" height="2" x="12.906" y="17" fill="#8d6c9f" />
  <path fill="#8d6c9f" d="M15.75,30H9.906c-0.553,0-1-0.447-1-1s0.447-1,1-1h5.844c0.553,0,1,0.447,1,1S16.303,30,15.75,30z" />
  <path fill="#8d6c9f" d="M55.25,30H20.156c-0.553,0-1-0.447-1-1s0.447-1,1-1H55.25c0.553,0,1,0.447,1,1S55.803,30,55.25,30z" />
  <path fill="#8d6c9f" d="M51.89,41H48.5c-0.553,0-1-0.447-1-1s0.447-1,1-1h3.39c0.553,0,1,0.447,1,1S52.442,41,51.89,41z" />
  <path fill="#8d6c9f" d="M45,41H12.961c-0.553,0-1-0.447-1-1s0.447-1,1-1H45c0.553,0,1,0.447,1,1S45.553,41,45,41z" />
  <rect width="38.983" height="2" x="12.906" y="50" fill="#8d6c9f" />
  <rect width="7" height="50" x="6" y="7" fill="#acb7d0" />
  <path fill="#8d6c9f" d="M13,58H6c-0.553,0-1-0.447-1-1V7c0-0.553,0.447-1,1-1h7c0.553,0,1,0.447,1,1v50 C14,57.553,13.553,58,13,58z M7,56h5V8H7V56z" />
  <rect width="7" height="50" x="29" y="7" fill="#acb7d0" />
  <path fill="#8d6c9f" d="M36,58h-7c-0.553,0-1-0.447-1-1V7c0-0.553,0.447-1,1-1h7c0.553,0,1,0.447,1,1v50 C37,57.553,36.553,58,36,58z M30,56h5V8h-5V56z" />
  <rect width="7" height="50" x="52" y="7" fill="#acb7d0" />
  <path fill="#8d6c9f" d="M59,58h-7c-0.553,0-1-0.447-1-1V7c0-0.553,0.447-1,1-1h7c0.553,0,1,0.447,1,1v50 C60,57.553,59.553,58,59,58z M53,56h5V8h-5V56z" />
  <path fill="#8d6c9f" d="M17,15.55c-0.553,0-1-0.447-1-1v-2c0-0.553,0.447-1,1-1s1,0.447,1,1v2 C18,15.103,17.553,15.55,17,15.55z" />
  <path fill="#8d6c9f" d="M21,15.55c-0.553,0-1-0.447-1-1v-2c0-0.553,0.447-1,1-1s1,0.447,1,1v2 C22,15.103,21.553,15.55,21,15.55z" />
  <path fill="#8d6c9f" d="M25,15.55c-0.553,0-1-0.447-1-1v-2c0-0.553,0.447-1,1-1s1,0.447,1,1v2 C26,15.103,25.553,15.55,25,15.55z" />
  <g>
    <path fill="#8d6c9f" d="M40,15.55c-0.553,0-1-0.447-1-1v-2c0-0.553,0.447-1,1-1s1,0.447,1,1v2 C41,15.103,40.553,15.55,40,15.55z" />
    <path fill="#8d6c9f" d="M44,15.55c-0.553,0-1-0.447-1-1v-2c0-0.553,0.447-1,1-1s1,0.447,1,1v2 C45,15.103,44.553,15.55,44,15.55z" />
    <path fill="#8d6c9f" d="M48,15.55c-0.553,0-1-0.447-1-1v-2c0-0.553,0.447-1,1-1s1,0.447,1,1v2 C49,15.103,48.553,15.55,48,15.55z" />
  </g>
  <g>
    <path fill="#8d6c9f" d="M17,48.55c-0.553,0-1-0.447-1-1v-2c0-0.553,0.447-1,1-1s1,0.447,1,1v2 C18,48.103,17.553,48.55,17,48.55z" />
    <path fill="#8d6c9f" d="M21,48.55c-0.553,0-1-0.447-1-1v-2c0-0.553,0.447-1,1-1s1,0.447,1,1v2 C22,48.103,21.553,48.55,21,48.55z" />
    <path fill="#8d6c9f" d="M25,48.55c-0.553,0-1-0.447-1-1v-2c0-0.553,0.447-1,1-1s1,0.447,1,1v2 C26,48.103,25.553,48.55,25,48.55z" />
  </g>
  <g>
    <path fill="#8d6c9f" d="M40,48.55c-0.553,0-1-0.447-1-1v-2c0-0.553,0.447-1,1-1s1,0.447,1,1v2 C41,48.103,40.553,48.55,40,48.55z" />
    <path fill="#8d6c9f" d="M44,48.55c-0.553,0-1-0.447-1-1v-2c0-0.553,0.447-1,1-1s1,0.447,1,1v2 C45,48.103,44.553,48.55,44,48.55z" />
    <path fill="#8d6c9f" d="M48,48.55c-0.553,0-1-0.447-1-1v-2c0-0.553,0.447-1,1-1s1,0.447,1,1v2 C49,48.103,48.553,48.55,48,48.55z" />
  </g>
</svg>