<?xml version="1.0" encoding="utf-8"?>
<svg xmlns="http://www.w3.org/2000/svg" viewBox="0 0 64 64" width="50" height="50">
  <rect width="58" height="42" x="3" y="15" fill="#ed7899" rx="2" ry="2" />
  <path fill="#ced9ed" d="M5,15H59a2,2,0,0,1,2,2v8a0,0,0,0,1,0,0H3a0,0,0,0,1,0,0V17a2,2,0,0,1,2-2Z" />
  <path fill="#e0678f" d="M61,56h0a1,1,0,0,1-1,1H4a1,1,0,0,1-1-1H3a4,4,0,0,1,4-4H57A4,4,0,0,1,61,56Z" />
  <path fill="#acb7d0" d="M41,15H37l-.57-4H27.63L27,15H23V11a4,4,0,0,1,4-4H37a4,4,0,0,1,4,4Z" />
  <path fill="#faefde" d="M40,35H36a1,1,0,0,1-1-1V30a1,1,0,0,0-1-1H30a1,1,0,0,0-1,1v4a1,1,0,0,1-1,1H24a1,1,0,0,0-1,1v4a1,1,0,0,0,1,1h4a1,1,0,0,1,1,1v4a1,1,0,0,0,1,1h4a1,1,0,0,0,1-1V42a1,1,0,0,1,1-1h4a1,1,0,0,0,1-1V36A1,1,0,0,0,40,35Z" />
  <rect width="8" height="4" x="11" y="23" fill="#fadb6f" rx="2" ry="2" />
  <rect width="8" height="4" x="45" y="23" fill="#fadb6f" rx="2" ry="2" />
  <path fill="#8d6c9f" d="M59,14H42V11a5,5,0,0,0-5-5H27a5,5,0,0,0-5,5v3H5a3,3,0,0,0-3,3V55a3,3,0,0,0,3,3H59a3,3,0,0,0,3-3V17A3,3,0,0,0,59,14ZM24,11a3,3,0,0,1,3-3H37a3,3,0,0,1,3,3v3H38V12a2,2,0,0,0-2-2H28a2,2,0,0,0-2,2v2H24Zm12,3H28V12h8ZM5,16H59a1,1,0,0,1,1,1v7H53.82A3,3,0,0,0,51,22H47a3,3,0,0,0-2.82,2H19.82A3,3,0,0,0,17,22H13a3,3,0,0,0-2.82,2H4V17A1,1,0,0,1,5,16Zm47,9a1,1,0,0,1-1,1H47a1,1,0,0,1,0-2h4A1,1,0,0,1,52,25ZM18,25a1,1,0,0,1-1,1H13a1,1,0,0,1,0-2h4A1,1,0,0,1,18,25ZM60,55a1,1,0,0,1-1,1H5a1,1,0,0,1-1-1V26h6.18A3,3,0,0,0,13,28h4a3,3,0,0,0,2.82-2H44.18A3,3,0,0,0,47,28h4a3,3,0,0,0,2.82-2H60Z" />
  <path fill="#8d6c9f" d="M42 40V36a2 2 0 0 0-2-2H36V30a2 2 0 0 0-2-2H30a2 2 0 0 0-2 2v4H24a2 2 0 0 0-2 2v4a2 2 0 0 0 2 2h4v4a2 2 0 0 0 2 2h4a2 2 0 0 0 2-2V42h4A2 2 0 0 0 42 40zm-2 0H36a2 2 0 0 0-2 2v4H30V42a2 2 0 0 0-2-2H24V36h4a2 2 0 0 0 2-2V30h4v4a2 2 0 0 0 2 2h4zM17 50a1 1 0 0 0-1 1v2a1 1 0 0 0 2 0V51A1 1 0 0 0 17 50zM12 50a1 1 0 0 0-1 1v2a1 1 0 0 0 2 0V51A1 1 0 0 0 12 50zM7 50a1 1 0 0 0-1 1v2a1 1 0 0 0 2 0V51A1 1 0 0 0 7 50zM32 50a1 1 0 0 0-1 1v2a1 1 0 0 0 2 0V51A1 1 0 0 0 32 50zM22 50a1 1 0 0 0-1 1v2a1 1 0 0 0 2 0V51A1 1 0 0 0 22 50zM27 50a1 1 0 0 0-1 1v2a1 1 0 0 0 2 0V51A1 1 0 0 0 27 50zM37 50a1 1 0 0 0-1 1v2a1 1 0 0 0 2 0V51A1 1 0 0 0 37 50zM52 50a1 1 0 0 0-1 1v2a1 1 0 0 0 2 0V51A1 1 0 0 0 52 50zM42 50a1 1 0 0 0-1 1v2a1 1 0 0 0 2 0V51A1 1 0 0 0 42 50zM47 50a1 1 0 0 0-1 1v2a1 1 0 0 0 2 0V51A1 1 0 0 0 47 50zM57 54a1 1 0 0 0 1-1V51a1 1 0 0 0-2 0v2A1 1 0 0 0 57 54z" />
</svg>