<?xml version="1.0" encoding="utf-8"?>
<!-- Generator: Adobe Illustrator 25.4.1, SVG Export Plug-In . SVG Version: 6.00 Build 0)  -->
<svg version="1.1" id="Layer_1" xmlns="http://www.w3.org/2000/svg" xmlns:xlink="http://www.w3.org/1999/xlink" x="0px" y="0px"
	 viewBox="0 0 50 50" style="enable-background:new 0 0 50 50;" xml:space="preserve">
<style type="text/css">
	.st0{fill:#F9E3AE;}
	.st1{fill:#F6D397;}
	.st2{fill:#8D6C9F;}
</style>
<g>
	<path class="st0" d="M26.3,44.5H18l11.9-19.3L18,5.5h8.3L38.1,25L26.3,44.5z"/>
	<path class="st1" d="M26.3,44.5H18L30.2,25h8L26.3,44.5z"/>
	<path class="st2" d="M38.7,24.6L27,5.1c-0.1-0.2-0.4-0.4-0.7-0.4h-8.6c-0.4,0-0.8,0.3-0.8,0.8c0,0.1,0,0.3,0.1,0.4L28.5,25L17,44.1
		c-0.2,0.4-0.1,0.9,0.3,1.1c0.1,0.1,0.3,0.1,0.4,0.1h8.6c0.3,0,0.5-0.1,0.7-0.4l11.7-19.5C38.8,25.2,38.8,24.8,38.7,24.6z
		 M25.8,43.8h-6.8l11-18.4c0.1-0.2,0.1-0.5,0-0.8l-11-18.4h6.8L37.1,25L25.8,43.8z"/>
	<path class="st2" d="M16.9,15.4c0.4,0,0.8-0.3,0.8-0.8c0-0.1,0-0.3-0.1-0.4l-5-8.3c-0.3-0.3-0.8-0.4-1.1-0.1
		c-0.3,0.2-0.4,0.6-0.2,0.9l5,8.3C16.4,15.2,16.6,15.4,16.9,15.4z M19.5,17.4c-0.3-0.3-0.8-0.4-1.1-0.1c-0.3,0.2-0.4,0.6-0.2,0.9
		l1.5,2.4c0.2,0.4,0.6,0.6,1,0.4c0.4-0.2,0.6-0.6,0.4-1c0-0.1-0.1-0.1-0.1-0.2L19.5,17.4z M23.1,26.1c0.4,0.2,0.8,0.1,1.1-0.2
		c0.2-0.4,0.1-0.8-0.2-1.1c0,0,0,0-0.1,0l-1.4-0.8c-0.4-0.2-0.8-0.1-1.1,0.2c-0.2,0.4-0.1,0.8,0.2,1.1c0,0,0,0,0.1,0L23.1,26.1z
		 M16.6,34.1c-0.4-0.2-0.9-0.1-1.1,0.3c-0.2,0.4-0.1,0.8,0.3,1l1.4,0.8c0.4,0.2,0.8,0.1,1.1-0.2c0.2-0.4,0.1-0.8-0.2-1.1
		c0,0,0,0-0.1,0L16.6,34.1z M16,38.3l-1.4-0.8c-0.4-0.2-0.8-0.1-1.1,0.2c-0.2,0.4-0.1,0.8,0.2,1.1c0,0,0,0,0.1,0l1.4,0.8
		c0.4,0.2,0.8,0.1,1.1-0.2C16.6,39,16.5,38.5,16,38.3C16.1,38.3,16,38.3,16,38.3z M14.1,41.6l-1.4-0.8c-0.4-0.2-0.9-0.1-1.1,0.3
		c-0.2,0.4-0.1,0.8,0.3,1l1.4,0.8c0.4,0.2,0.8,0.1,1.1-0.2C14.6,42.4,14.5,41.9,14.1,41.6C14.1,41.7,14.1,41.6,14.1,41.6z
		 M19.5,27.6c-0.2,0.4-0.1,0.9,0.3,1.1c0,0,0,0,0,0l1.4,0.8c0.4,0.2,0.9,0.1,1.1-0.3c0.2-0.4,0.1-0.8-0.3-1l-1.4-0.8
		C20.2,27.1,19.7,27.2,19.5,27.6C19.5,27.6,19.5,27.6,19.5,27.6z M17.5,31c-0.2,0.4-0.1,0.8,0.3,1l1.4,0.8c0.4,0.2,0.8,0.1,1.1-0.2
		c0.2-0.4,0.1-0.8-0.2-1.1c0,0,0,0-0.1,0l-1.4-0.8C18.2,30.5,17.7,30.6,17.5,31C17.5,31,17.5,31,17.5,31z"/>
</g>
</svg>
