<?xml version="1.0" encoding="utf-8"?>
<svg xmlns="http://www.w3.org/2000/svg" viewBox="0 0 64 64" width="50" height="50">
  <path fill="#faefde" d="M17.24,4.94H46a3,3,0,0,1,3,3v48a3,3,0,0,1-3,3H8a3,3,0,0,1-3-3V17.18a3,3,0,0,1,.88-2.12l9.24-9.24A3,3,0,0,1,17.24,4.94Z" />
  <path fill="#fff7f0" d="M5 59L4.85 49.54 48.34 6.06 49 29 19 59 5 59zM4.85 39.15L39.06 4.94 44.81 5.19 5 45 4.85 39.15zM4.85 33.15L33 5 36 5 4.85 36.15 4.85 33.15z" />
  <path fill="#fff" d="M39.5 13L40.74 15.26 43 16.5 40.74 17.74 39.5 20 38.26 17.74 36 16.5 38.26 15.26 39.5 13zM24.42 11L25.27 12.56 26.84 13.42 25.27 14.27 24.42 15.84 23.56 14.27 22 13.42 23.56 12.56 24.42 11zM10.65 42L11.23 43.06 12.3 43.65 11.23 44.23 10.65 45.3 10.06 44.23 9 43.65 10.06 43.06 10.65 42z" />
  <path fill="#bbdef9" d="M17 5L17 17 5 17 17 5z" />
  <path fill="#85cbf8" d="M15 23H59V45H15z" />
  <path fill="#8d6c9f" d="M9 52a1 1 0 0 0-1 1v2a1 1 0 0 0 2 0V53A1 1 0 0 0 9 52zM14 52a1 1 0 0 0-1 1v2a1 1 0 0 0 2 0V53A1 1 0 0 0 14 52zM19 56a1 1 0 0 0 1-1V53a1 1 0 0 0-2 0v2A1 1 0 0 0 19 56zM24 56a1 1 0 0 0 1-1V53a1 1 0 0 0-2 0v2A1 1 0 0 0 24 56zM29 56a1 1 0 0 0 1-1V53a1 1 0 0 0-2 0v2A1 1 0 0 0 29 56zM34 56a1 1 0 0 0 1-1V53a1 1 0 0 0-2 0v2A1 1 0 0 0 34 56zM39 56a1 1 0 0 0 1-1V53a1 1 0 0 0-2 0v2A1 1 0 0 0 39 56zM44 56a1 1 0 0 0 1-1V53a1 1 0 0 0-2 0v2A1 1 0 0 0 44 56z" />
  <path fill="#8d6c9f" d="M58,22H50V7a3,3,0,0,0-3-3H17.66a5,5,0,0,0-3.54,1.46L5.46,14.12A5,5,0,0,0,4,17.66V57a3,3,0,0,0,3,3H47a3,3,0,0,0,3-3V46h8a2,2,0,0,0,2-2V24A2,2,0,0,0,58,22ZM15.54,6.88A3,3,0,0,1,16,6.5V15a1,1,0,0,1-1,1H6.5a3,3,0,0,1,.38-.46ZM48,57a1,1,0,0,1-1,1H7a1,1,0,0,1-1-1V18h9a3,3,0,0,0,3-3V6H47a1,1,0,0,1,1,1V22H16a2,2,0,0,0-2,2V44a2,2,0,0,0,2,2H48ZM58,44H16V24H58Z" />
  <path fill="#fff" d="M45 40a1 1 0 0 0 1-1V36h3a1 1 0 0 0 0-2H46V30h4a1 1 0 0 0 0-2H45a1 1 0 0 0-1 1V39A1 1 0 0 0 45 40zM25 40a1 1 0 0 0 1-1V36h3a3 3 0 0 0 3-3V31a3 3 0 0 0-3-3H25a1 1 0 0 0-1 1V39A1 1 0 0 0 25 40zm1-10h3a1 1 0 0 1 1 1v2a1 1 0 0 1-1 1H26zM35 40h3a4 4 0 0 0 4-4V32a4 4 0 0 0-4-4H35a1 1 0 0 0-1 1V39A1 1 0 0 0 35 40zm1-10h2a2 2 0 0 1 2 2v4a2 2 0 0 1-2 2H36z" />
</svg>