<?xml version="1.0" encoding="utf-8"?>
<svg xmlns="http://www.w3.org/2000/svg" viewBox="0 0 64 64" width="50" height="50">
  <rect width="66" height="32" x="-1" y="16" fill="#85cbf8" rx="16" ry="16" transform="rotate(135 31.998 31.999)" />
  <path fill="#7bbeeb" d="M28.06,56.84a4.92,4.92,0,0,0-4.81-1.29A11.76,11.76,0,0,1,20,56a12,12,0,0,1-9.15-4.25A5,5,0,0,0,7.06,50H5.17a16,16,0,0,0,23.49,7.44Z" />
  <path fill="#ed7899" d="M47,39.67l8.38-8.38a16,16,0,0,0,0-22.63h0a16,16,0,0,0-22.63,0L24.33,17Z" />
  <path fill="#75b8e5" d="M16.42 27.33H48.150000000000006V37.23H16.42z" transform="rotate(45 32.279 32.28)" />
  <path fill="#f994b3" d="M44,4A15.93,15.93,0,0,0,33,8.41l.43.43a4,4,0,0,0,4.73.68,12,12,0,0,1,17.45,7.4A4,4,0,0,0,59.49,20H60A16,16,0,0,0,44,4Z" />
  <path fill="#8d6c9f" d="M56,8A17,17,0,0,0,32,8L8,32A17,17,0,0,0,32,56L56,32A17,17,0,0,0,56,8ZM30.59,54.63A15,15,0,0,1,9.37,33.41l7.78-7.78L30.59,39.07A1,1,0,0,0,32,37.66L18.56,24.22,20,22.81h0a1,1,0,0,0,1.41,0l1.41-1.41a1,1,0,0,0,0-1.41h0l1.41-1.41L45.44,39.78,44,41.19h0a1,1,0,0,0-1.41,0l-1.41,1.41a1,1,0,0,0,0,1.41h0Zm24-24-7.78,7.78L25.64,17.15l7.78-7.78A15,15,0,0,1,54.63,30.59Z" />
  <path fill="#8d6c9f" d="M24.93 23.51l-1.41 1.41a1 1 0 1 0 1.41 1.41l1.41-1.41a1 1 0 0 0-1.41-1.41zM28.46 27.05l-1.41 1.41a1 1 0 1 0 1.41 1.41l1.41-1.41a1 1 0 0 0-1.41-1.41zM33.41 30.59a1 1 0 0 0-1.41 0L30.59 32A1 1 0 1 0 32 33.41L33.41 32A1 1 0 0 0 33.41 30.59zM34.83 37.24a1 1 0 0 0 .71-.29l1.41-1.41a1 1 0 0 0-1.41-1.41l-1.41 1.41a1 1 0 0 0 .71 1.71zM39.07 37.66l-1.41 1.41a1 1 0 1 0 1.41 1.41l1.41-1.41a1 1 0 0 0-1.41-1.41zM34.83 40.49a1 1 0 0 0-1.41 1.41l2.83 2.83a1 1 0 0 0 1.41-1.41zM54.58 12.44a13.07 13.07 0 0 0-1.32-1.57 1 1 0 1 0-1.43 1.4A10.9 10.9 0 0 1 53 13.61a1 1 0 0 0 1.63-1.16zM49.78 8.35a13 13 0 0 0-9.87-.69 1 1 0 1 0 .63 1.9 11.09 11.09 0 0 1 8.35.59 1 1 0 0 0 .44.1 1 1 0 0 0 .45-1.9z" />
</svg>