<?xml version="1.0" encoding="utf-8"?>
<svg xmlns="http://www.w3.org/2000/svg" viewBox="0 0 64 64" width="50" height="50">
  <path fill="#72caaf" d="M31 3A28 28 0 1 0 31 59A28 28 0 1 0 31 3Z" />
  <path fill="#88d7b6" d="M31 19A12 12 0 1 0 31 43A12 12 0 1 0 31 19Z" />
  <path fill="#8d6c9f" d="M31 37a1 1 0 0 0-1 1v2a1 1 0 0 0 2 0V38A1 1 0 0 0 31 37zM30 22v2a1 1 0 0 0 2 0V22a1 1 0 0 0-2 0zM38 32h2a1 1 0 0 0 0-2H38a1 1 0 0 0 0 2zM25 31a1 1 0 0 0-1-1H22a1 1 0 0 0 0 2h2A1 1 0 0 0 25 31zM38.07 36.66l-1.41-1.41a1 1 0 0 0-1.41 1.41l1.41 1.41a1 1 0 0 0 1.41-1.41zM23.93 25.34l1.41 1.41a1 1 0 0 0 1.41-1.41l-1.41-1.41a1 1 0 0 0-1.41 1.41zM38.07 23.93a1 1 0 0 0-1.41 0l-1.41 1.41a1 1 0 1 0 1.41 1.41l1.41-1.41A1 1 0 0 0 38.07 23.93zM24.64 38.36a1 1 0 0 0 .71-.29l1.41-1.41a1 1 0 0 0-1.41-1.41l-1.41 1.41a1 1 0 0 0 .71 1.71z" />
  <path fill="#8d6c9f" d="M31,2A29,29,0,1,0,60,31,29,29,0,0,0,31,2Zm0,56A27,27,0,1,1,58,31,27,27,0,0,1,31,58Z" />
  <path fill="#faefde" d="M12.41 35.07a1 1 0 0 0 .83-1.15A18 18 0 0 1 22 15.41V20a1 1 0 0 0 2 0V13a1 1 0 0 0-1-1H15.92a1 1 0 0 0 0 2h4.57a20 20 0 0 0-9.22 20.24 1 1 0 0 0 1 .84zM33.84 48.78A18 18 0 0 1 15.42 40H20a1 1 0 0 0 0-2H13a1 1 0 0 0-1 1v7.08a1 1 0 0 0 2 0V41.52a20 20 0 0 0 20.15 9.24 1 1 0 1 0-.31-2zM51 31a20.18 20.18 0 0 0-.26-3.22 1 1 0 1 0-2 .32A18 18 0 0 1 40 46.58V42a1 1 0 0 0-2 0v7a1 1 0 0 0 1 1h7.08a1 1 0 0 0 0-2H41.52A20.08 20.08 0 0 0 51 31zM34.64 13.37A18.1 18.1 0 0 1 46.58 22H42a1 1 0 0 0 0 2h7a1 1 0 0 0 1-1V15.92a1 1 0 0 0-2 0v4.55a20.11 20.11 0 0 0-13-9.06 1 1 0 1 0-.4 2zM28 13.23h.16A18.17 18.17 0 0 1 30.59 13a1 1 0 0 0 0-2h0a20.14 20.14 0 0 0-2.69.24 1 1 0 0 0 .15 2z" />
</svg>