<?xml version="1.0" encoding="utf-8"?>
<svg xmlns="http://www.w3.org/2000/svg" viewBox="0 0 64 64" width="50" height="50">
  <path fill="#c2cde7" d="M5,16v29c0,5.523,11.193,10,25,10s25-4.477,25-10l-6.078-9.808L55,32V16H5z" />
  <path fill="#ced8ed" d="M12,16H5v29c0,2.694,2.669,5.138,7,6.936V16z" />
  <path fill="#b5c4e0" d="M40,16v38.166C48.828,52.622,55,49.1,55,45V16H40z" />
  <path fill="#ced8ed" d="M30 5A25 10 0 1 0 30 25A25 10 0 1 0 30 5Z" />
  <path fill="#72caaf" d="M47 61L47 46 43 50 39 46 50 35 61 46 57 50 53 46 53 61z" />
  <g>
    <path fill="#8d6c9f" d="M31.106 10.01c.944.017 1.896.058 2.83.121.023.002.046.002.068.002.521 0 .961-.405.997-.933.037-.551-.38-1.028-.931-1.065C33.104 8.07 32.12 8.028 31.144 8.01c-.007 0-.013 0-.019 0-.544 0-.99.436-1 .981C30.115 9.544 30.555 10 31.106 10.01zM18.183 11.301c.081 0 .163-.01.244-.03 2.407-.604 5.282-1.013 8.313-1.182.552-.031.974-.503.942-1.054-.03-.551-.51-.975-1.054-.943-3.156.176-6.161.604-8.688 1.239-.536.134-.861.678-.727 1.213C17.328 10.999 17.735 11.301 18.183 11.301zM30 42c-.553 0-1 .448-1 1v2c0 .552.447 1 1 1s1-.448 1-1v-2C31 42.448 30.553 42 30 42zM35 41.8c-.553 0-1 .448-1 1v2c0 .552.447 1 1 1s1-.448 1-1v-2C36 42.248 35.553 41.8 35 41.8z" />
    <path fill="#8d6c9f" d="M61.71,45.29L56,39.58V15C56,8.832,44.579,4,30,4S4,8.832,4,15v30c0,6.17,11.42,11,26,11 c6.08,0,11.62-0.84,16-2.27V61c0,0.55,0.45,1,1,1h6c0.55,0,1-0.45,1-1V48.41l2.29,2.3c0.39,0.39,1.03,0.39,1.42,0l4-4 C62.1,46.32,62.1,45.68,61.71,45.29z M54,25c0,4.346-9.644,9-24,9S6,29.346,6,25v-5.692C9.888,23.276,19.053,26,30,26 s20.112-2.724,24-6.692V25z M30,6c14.356,0,24,4.654,24,9s-9.644,9-24,9S6,19.346,6,15S15.644,6,30,6z M30,54 c-14.36,0-24-4.65-24-9v-5.713c3.213,3.304,10.078,5.782,18.856,6.504c0.028,0.002,0.056,0.003,0.083,0.003 c0.516,0,0.953-0.396,0.996-0.918c0.045-0.55-0.364-1.033-0.915-1.079C14.177,42.906,6,39.124,6,35v-5.692 C9.888,33.276,19.053,36,30,36s20.112-2.724,24-6.692v8.272l-3.29-3.29c-0.39-0.39-1.03-0.39-1.42,0L41,42.58V42.1 c0-0.552-0.447-1-1-1s-1,0.448-1,1v2c0,0.141,0.031,0.275,0.083,0.396L38.29,45.29c-0.39,0.39-0.39,1.03,0,1.42l4,4 c0.39,0.39,1.03,0.39,1.42,0l2.29-2.3v3.23C41.91,53.07,36.43,54,30,54z M57,48.59l-3.29-3.3c-0.29-0.28-0.72-0.37-1.09-0.21 C52.24,45.23,52,45.6,52,46v14h-4V46c0-0.4-0.24-0.77-0.62-0.92c-0.37-0.16-0.8-0.07-1.09,0.21L43,48.59L40.41,46L50,36.41 L59.59,46L57,48.59z" />
  </g>
</svg>