<?xml version="1.0" encoding="utf-8"?>
<svg xmlns="http://www.w3.org/2000/svg" viewBox="0 0 64 64" width="50" height="50">
  <path fill="#c2cde7" d="M54 47L13 47 10 19 60 19 54 47z" />
  <path fill="#f9e3ae" d="M10 15H62V19H10z" />
  <path fill="#f283a5" d="M3 3A2 2 0 1 0 3 7A2 2 0 1 0 3 3Z" />
  <path fill="#ed7899" d="M25 51A4 4 0 1 0 25 59A4 4 0 1 0 25 51Z" />
  <path fill="#f283a5" d="M25 53A2 2 0 1 0 25 57A2 2 0 1 0 25 53Z" />
  <path fill="#ed7899" d="M45 51A4 4 0 1 0 45 59A4 4 0 1 0 45 51Z" />
  <path fill="#ced8ed" d="M22 47L12 47 10 19 21 19 22 47z" />
  <path fill="#b5c4e0" d="M10,19v2a3,3,0,0,0,3,3H44L42,47H54l6-28Z" />
  <path fill="#f283a5" d="M45 53A2 2 0 1 0 45 57A2 2 0 1 0 45 53Z" />
  <path fill="#8d6c9f" d="M15 26a1 1 0 0 0 1-1V23a1 1 0 0 0-2 0v2A1 1 0 0 0 15 26zM20 26a1 1 0 0 0 1-1V23a1 1 0 0 0-2 0v2A1 1 0 0 0 20 26zM25 26a1 1 0 0 0 1-1V23a1 1 0 0 0-2 0v2A1 1 0 0 0 25 26zM30 26a1 1 0 0 0 1-1V23a1 1 0 0 0-2 0v2A1 1 0 0 0 30 26zM35 26a1 1 0 0 0 1-1V23a1 1 0 0 0-2 0v2A1 1 0 0 0 35 26zM40 26a1 1 0 0 0 1-1V23a1 1 0 0 0-2 0v2A1 1 0 0 0 40 26zM45 26a1 1 0 0 0 1-1V23a1 1 0 0 0-2 0v2A1 1 0 0 0 45 26zM50 26a1 1 0 0 0 1-1V23a1 1 0 0 0-2 0v2A1 1 0 0 0 50 26zM55 26a1 1 0 0 0 1-1V23a1 1 0 0 0-2 0v2A1 1 0 0 0 55 26z" />
  <path fill="#8d6c9f" d="M61,14H10.72l-.28-3.55a7,7,0,0,0-4.49-6,3,3,0,1,0-.37,2,5,5,0,0,1,2.86,4.1L10.29,34H5a1,1,0,0,0,0,2h5.45l.78,9.87a11.07,11.07,0,0,0,8.85,9.92A5,5,0,0,0,29.9,56H40.1a5,5,0,1,0,0-2H29.9a5,5,0,0,0-9.72-.25A9.09,9.09,0,0,1,13.72,48H52.38a3,3,0,0,0,2.93-2.37L60.81,20H61a3,3,0,0,0,0-6ZM3,6.17A1.17,1.17,0,1,1,4.17,5,1.17,1.17,0,0,1,3,6.17ZM45,51.72A3.28,3.28,0,1,1,41.72,55,3.28,3.28,0,0,1,45,51.72Zm-20,0A3.28,3.28,0,1,1,21.72,55,3.28,3.28,0,0,1,25,51.72Zm28.36-6.51a1,1,0,0,1-1,.79H13.26c0-.1,0-.19,0-.29L12.46,36H36.59l-4.29,4.29a1,1,0,1,0,1.41,1.41l6-6a1,1,0,0,0,0-1.41l-6-6a1,1,0,0,0-1.41,1.41L36.59,34H12.3L11.19,20H58.76ZM61,18H11l-.16-2H61a1,1,0,0,1,0,2Z" />
</svg>