<?xml version="1.0" encoding="utf-8"?>
<svg xmlns="http://www.w3.org/2000/svg" viewBox="0 0 64 64" width="50" height="50">
  <path fill="#c2cde7" d="M55,57H9a2,2,0,0,1-2-2V9A2,2,0,0,1,9,7H47a2,2,0,0,1,1.41.59l8,8A2,2,0,0,1,57,17V55A2,2,0,0,1,55,57Z" />
  <rect width="34" height="26" x="15" y="31" fill="#faefde" rx="2" ry="2" />
  <rect width="30" height="18" x="15" y="7" fill="#bbdef9" rx="2" ry="2" transform="rotate(180 30 16)" />
  <path fill="#def0ff" d="M45 7L37.08 7 22.83 25 35.67 25 45 13.21 45 7zM15 18.89L24.42 7 23.25 7 15 17.42 15 18.89zM27.92 7L15 23.32 15 25 19.17 25 33.42 7 27.92 7z" />
  <rect width="4" height="10" x="37" y="11" fill="#ffeb9b" rx="2" ry="2" />
  <path fill="#efd8be" d="M19,50H45a4,4,0,0,1,4,4v3a0,0,0,0,1,0,0H15a0,0,0,0,1,0,0V54A4,4,0,0,1,19,50Z" />
  <path fill="#8d6c9f" d="M56.54,14.12,49.88,7.46A5,5,0,0,0,46.34,6H9A3,3,0,0,0,6,9V55a3,3,0,0,0,3,3H55a3,3,0,0,0,3-3V17.66A5,5,0,0,0,56.54,14.12ZM44,8V23a1,1,0,0,1-1,1H17a1,1,0,0,1-1-1V8ZM16,56V33a1,1,0,0,1,1-1H47a1,1,0,0,1,1,1V56Zm40-1a1,1,0,0,1-1,1H50V33a3,3,0,0,0-3-3H17a3,3,0,0,0-3,3V56H9a1,1,0,0,1-1-1V9A1,1,0,0,1,9,8h5V23a3,3,0,0,0,3,3H43a3,3,0,0,0,3-3V8h.34a3,3,0,0,1,2.12.88l6.66,6.66A3,3,0,0,1,56,17.66Z" />
  <path fill="#eb9697" d="M39 38h4a1 1 0 0 0 0-2H39a1 1 0 0 0 0 2zM21 38H35a1 1 0 0 0 0-2H21a1 1 0 0 0 0 2zM39 40H21a1 1 0 0 0 0 2H39a1 1 0 0 0 0-2z" />
  <path fill="#8d6c9f" d="M19 48a1 1 0 0 0-1 1v2a1 1 0 0 0 2 0V49A1 1 0 0 0 19 48zM24 48a1 1 0 0 0-1 1v2a1 1 0 0 0 2 0V49A1 1 0 0 0 24 48zM29 48a1 1 0 0 0-1 1v2a1 1 0 0 0 2 0V49A1 1 0 0 0 29 48zM34 48a1 1 0 0 0-1 1v2a1 1 0 0 0 2 0V49A1 1 0 0 0 34 48zM39 48a1 1 0 0 0-1 1v2a1 1 0 0 0 2 0V49A1 1 0 0 0 39 48zM44 48a1 1 0 0 0-1 1v2a1 1 0 0 0 2 0V49A1 1 0 0 0 44 48zM39 22a3 3 0 0 0 3-3V13a3 3 0 0 0-6 0v6A3 3 0 0 0 39 22zm-1-9a1 1 0 0 1 2 0v6a1 1 0 0 1-2 0z" />
</svg>