<?xml version="1.0" encoding="utf-8"?>
<svg xmlns="http://www.w3.org/2000/svg" viewBox="0 0 64 64" width="50" height="50">
  <rect width="52" height="42" x="1" y="15" fill="#efd8be" rx="1" ry="1" />
  <path fill="#cda1a7" d="M5,52H49a4,4,0,0,1,4,4v1a0,0,0,0,1,0,0H1a0,0,0,0,1,0,0V56A4,4,0,0,1,5,52Z" />
  <path fill="#72caaf" d="M60.83,53.4a.51.51,0,0,0-.11.44l.58,2.72a.5.5,0,0,1-.34.58L58.32,58a.51.51,0,0,0-.32.32L57.14,61a.5.5,0,0,1-.58.34l-2.72-.58a.51.51,0,0,0-.44.11L51.34,62.7a.5.5,0,0,1-.67,0l-1.24-1.13-.82-.74a.51.51,0,0,0-.44-.11l-2.4.51-.32.07a.5.5,0,0,1-.58-.34L44,58.32a.51.51,0,0,0-.32-.32l-.52-.17L41,57.14a.5.5,0,0,1-.34-.58l.07-.34.51-2.38a.51.51,0,0,0-.11-.44L40,52l-.64-.71a.5.5,0,0,1,0-.67l1.87-2.06a.51.51,0,0,0,.11-.44l-.58-2.72a.5.5,0,0,1,.34-.58L43.69,44a.51.51,0,0,0,.32-.32L44.87,41a.5.5,0,0,1,.58-.34l2.72.58a.51.51,0,0,0,.44-.11l2.06-1.87a.5.5,0,0,1,.67,0L52,40l1.35,1.23a.51.51,0,0,0,.44.11l2.38-.51.34-.07a.5.5,0,0,1,.58.34l.69,2.12.17.52a.51.51,0,0,0,.32.32l2.64.86a.5.5,0,0,1,.34.58l-.07.32-.51,2.4a.51.51,0,0,0,.11.44l.74.82,1.13,1.24a.5.5,0,0,1,0,.67Z" />
  <path fill="#faefde" d="M53 15L2 15 10 9 46 9 53 15z" />
  <path fill="#8d6c9f" d="M10 50.06a1 1 0 0 0-1 1v2a1 1 0 0 0 2 0v-2A1 1 0 0 0 10 50.06zM5 50.06a1 1 0 0 0-1 1v2a1 1 0 0 0 2 0v-2A1 1 0 0 0 5 50.06zM15 50.06a1 1 0 0 0-1 1v2a1 1 0 0 0 2 0v-2A1 1 0 0 0 15 50.06zM20 50.06a1 1 0 0 0-1 1v2a1 1 0 0 0 2 0v-2A1 1 0 0 0 20 50.06zM25 50.06a1 1 0 0 0-1 1v2a1 1 0 0 0 2 0v-2A1 1 0 0 0 25 50.06zM30 50.06a1 1 0 0 0-1 1v2a1 1 0 0 0 2 0v-2A1 1 0 0 0 30 50.06zM35 50.06a1 1 0 0 0-1 1v2a1 1 0 0 0 2 0v-2A1 1 0 0 0 35 50.06zM43 16h4a1 1 0 0 0 0-2H43a1 1 0 0 0 0 2zM37 40H17a1 1 0 0 0 0 2H37a1 1 0 0 0 0-2zM23 22h8a1 1 0 0 0 0-2H23a1 1 0 0 0 0 2zM18.71 30.71L20 29.41V37a1 1 0 0 0 2 0V29.41l1.29 1.29a1 1 0 0 0 1.41-1.41l-3-3a1 1 0 0 0-1.41 0l-3 3a1 1 0 0 0 1.41 1.41zM29.29 30.71a1 1 0 0 0 1.41 0L32 29.41V37a1 1 0 0 0 2 0V29.41l1.29 1.29a1 1 0 0 0 1.41-1.41l-3-3a1 1 0 0 0-1.41 0l-3 3A1 1 0 0 0 29.29 30.71z" />
  <path fill="#8d6c9f" d="M63.44,50l-1.69-1.87.53-2.47a1.5,1.5,0,0,0-1-1.74l-2.4-.78-.78-2.4a1.49,1.49,0,0,0-1.74-1l-2.35.5V17a5,5,0,0,0-2-4L46.67,9a5.07,5.07,0,0,0-3-1H10.33a5.07,5.07,0,0,0-3,1L2,13a5,5,0,0,0-2,4V55a3,3,0,0,0,3,3H40.51l.23.09,2.4.78.78,2.4a1.5,1.5,0,0,0,1.74,1l2.47-.53L50,63.44a1.51,1.51,0,0,0,1,.39,1.48,1.48,0,0,0,1-.39l1.87-1.69,2.47.53a1.5,1.5,0,0,0,1.74-1l.78-2.4,2.4-.78a1.49,1.49,0,0,0,1-1.74l-.53-2.47L63.44,52A1.49,1.49,0,0,0,63.44,50ZM8.53,10.6a3,3,0,0,1,1.8-.6H26v4H4ZM2,55V16H39a1,1,0,0,0,0-2H28V10H43.67a3,3,0,0,1,1.8.6l5.33,4A3,3,0,0,1,52,17V38.56a1.49,1.49,0,0,0-2,0l-1.87,1.69-2.47-.53a1.49,1.49,0,0,0-1.74,1l-.78,2.4-2.4.78a1.5,1.5,0,0,0-1,1.74l.53,2.47L38.57,50a1.49,1.49,0,0,0,0,2l1.69,1.87L39.81,56H3A1,1,0,0,1,2,55Zm58.09-2.27A1.51,1.51,0,0,0,59.74,54l.49,2.28L58,57a1.51,1.51,0,0,0-1,1l-.71,2.22L54,59.74a1.51,1.51,0,0,0-1.32.35L51,61.65l-1.72-1.56a1.51,1.51,0,0,0-1-.38,1.63,1.63,0,0,0-.31,0l-2.28.49L45,58h0a1.57,1.57,0,0,0-1-1l-2.22-.71.07-.33.42-1.94a1.53,1.53,0,0,0-.35-1.33L40.36,51l1.56-1.72A1.52,1.52,0,0,0,42.27,48l-.49-2.28L44,45a1.48,1.48,0,0,0,1-1l.72-2.22,2.27.49a1.53,1.53,0,0,0,1.33-.35L51,40.36l1,.9.73.66a1.48,1.48,0,0,0,1.27.35s0,0,0,0l2.28-.49L57,44a1.48,1.48,0,0,0,1,1l2.22.72L59.74,48a1.51,1.51,0,0,0,.35,1.32L61.65,51Z" />
</svg>