<?xml version="1.0" encoding="utf-8"?>
<svg xmlns="http://www.w3.org/2000/svg" viewBox="0 0 64 64" width="50" height="50">
  <path fill="#c2cde7" d="M30,61H2l-1-3v-5c0,0,1-9,8-10h21V61z" />
  <path fill="#d6dff2" d="M15,39v12h14v-9c0,0,0,1-3,1s-8-4-9-5L15,39z" />
  <path fill="#acb7d0" d="M47,56H5c-2.209,0-4,1.791-4,4v0c0,0.552,0.448,1,1,1h48c0.552,0,1-0.448,1-1v0 C51,57.791,49.209,56,47,56z" />
  <path fill="#f6d397" d="M15 51L10 51 9 49 9 43 15 39z" />
  <path fill="#faefde" d="M40.035,23.136c-0.34-0.091-0.706,0.016-1.066,0.25c-0.072-1.542-0.329-2.649-0.964-4.373 c-0.924-2.508,0,0,0,0C36.631,12.724,34.75,7,27,7h-1c-2.246,0-5.312,0.75-6.982,2H19c-3.314,0-5.625,2.25-6,6 s0.356,5.916,0.215,6.715c-0.096,0.546-0.158,1.104-0.184,1.671c-0.36-0.234-0.726-0.341-1.066-0.25 c-1.067,0.286-1.468,2.247-0.897,4.381c0.525,1.959,1.686,3.364,2.698,3.363C15.571,36.953,20.366,43,26,43 s10.429-6.047,12.234-12.119c1.013,0.001,2.173-1.404,2.698-3.363C41.504,25.384,41.102,23.422,40.035,23.136z" />
  <path fill="#faefde" d="M59,61.057H31c-1.105,0-2-0.895-2-2v-20l-1,0c-0.552,0-1-0.448-1-1v-2c0-0.552,0.448-1,1-1h34 c0.552,0,1,0.448,1,1v2c0,0.552-0.448,1-1,1l-1,0v20C61,60.162,60.105,61.057,59,61.057z" />
  <path fill="#cda1a7" d="M48,47h-6c-1.105,0-2-0.895-2-2v0c0-1.105,0.895-2,2-2h6c1.105,0,2,0.895,2,2v0 C50,46.105,49.105,47,48,47z" />
  <path fill="#fff7f0" d="M60,61H30c-0.552,0-1-0.448-1-1v0c0-2.209,1.791-4,4-4h24c2.209,0,4,1.791,4,4v0 C61,60.552,60.552,61,60,61z" />
  <path fill="#efd8be" d="M29 39H61V43H29z" />
  <path fill="#f9e3ae" d="M39.868,17.151L39.868,17.151C39.408,17.212,39,16.855,39,16.391V14.75C39,7.708,34.011,2,27.857,2 h-3.714C17.989,2,13,7.708,13,14.75v1.641c0,0.464-0.408,0.821-0.868,0.76h0C11.533,17.071,11,17.537,11,18.142v1.982 c0,0.501,0.371,0.925,0.868,0.991l3.559,0.474c7.018,0.936,14.129,0.936,21.146,0l3.559-0.474C40.629,21.049,41,20.626,41,20.124 v-1.982C41,17.537,40.467,17.071,39.868,17.151z" />
  <path fill="#f6d397" d="M39.868,17.151l-3.295,0.439c-7.018,0.936-14.129,0.936-21.146,0l-3.295-0.439 C11.533,17.071,11,17.537,11,18.142v1.982c0,0.501,0.371,0.925,0.868,0.991l3.559,0.474c7.018,0.936,14.129,0.936,21.146,0 l3.559-0.474C40.629,21.049,41,20.626,41,20.124v-1.982C41,17.537,40.467,17.071,39.868,17.151z" />
  <path fill="#faefde" d="M28.143,2.995C28.062,1.871,27.127,1,26,1s-2.062,0.871-2.143,1.995L23,14l6-4L28.143,2.995z" />
  <path fill="#8d6c9f" d="M25 54c-.552 0-1 .447-1 1v2c0 .553.448 1 1 1s1-.447 1-1v-2C26 54.447 25.552 54 25 54zM20 54c-.552 0-1 .447-1 1v2c0 .553.448 1 1 1s1-.447 1-1v-2C21 54.447 20.552 54 20 54zM15 54c-.552 0-1 .447-1 1v2c0 .553.448 1 1 1s1-.447 1-1v-2C16 54.447 15.552 54 15 54zM10 54c-.552 0-1 .447-1 1v2c0 .553.448 1 1 1s1-.447 1-1v-2C11 54.447 10.552 54 10 54zM5 54c-.552 0-1 .447-1 1v2c0 .553.448 1 1 1s1-.447 1-1v-2C6 54.447 5.552 54 5 54z" />
  <path fill="#8d6c9f" d="M62,34.06H38.11c0.35-0.77,0.65-1.55,0.91-2.33c1.22-0.46,2.34-1.96,2.88-3.95 c0.31-1.18,0.38-2.37,0.18-3.35c-0.25-1.22-0.89-2.02-1.79-2.26c-0.06-0.01-0.12-0.03-0.19-0.04l0.16-0.02 c0.99-0.13,1.74-0.99,1.74-1.99v-1.98c0-0.57-0.25-1.12-0.68-1.5c-0.37-0.32-0.84-0.5-1.32-0.5v-1.39 c0-7.41-5.21-13.47-11.69-13.74C27.73,0.39,26.9,0,26,0s-1.73,0.39-2.31,1.01C17.21,1.28,12,7.34,12,14.75v0.15 c-0.04,0.44-0.07,0.86-0.08,1.25c-0.45,0.01-0.89,0.19-1.24,0.49c-0.43,0.38-0.68,0.93-0.68,1.5v1.98c0,1,0.75,1.86,1.74,1.99 l0.16,0.02c-0.07,0.01-0.13,0.03-0.19,0.04c-0.9,0.24-1.54,1.04-1.79,2.26c-0.2,0.98-0.13,2.17,0.18,3.35 c0.54,1.99,1.66,3.49,2.89,3.95c0.63,1.94,1.56,3.86,2.72,5.6l-9.22,5.34c-3.634,2.098-6.014,5.849-6.421,9.989 C0.03,52.766,0,52.879,0,53v0.92V55v4c0,1.65,1.35,3,3,3h56c1.65,0,3-1.35,3-3V40.06c1.1,0,2-0.9,2-2v-2 C64,34.95,63.1,34.06,62,34.06z M22.85,3.1l-0.71,9.87c-0.04,0.55,0.38,1.03,0.93,1.07h0.07c0.52,0,0.96-0.4,1-0.93l0.71-10.04 c0-0.02,0-0.05,0.01-0.07c0.08-0.57,0.56-1,1.14-1s1.06,0.43,1.14,1c0.01,0.02,0.01,0.05,0.01,0.07l0.47,6.62 c0.04,0.55,0.52,0.98,1.07,0.93c0.55-0.04,0.96-0.52,0.92-1.07L29.15,3.1C34.13,3.83,38,8.78,38,14.75v0.22v1.42l0,0.001 l-1.56,0.208c-0.437,0.059-0.873,0.113-1.311,0.164c-0.549,0.062-0.942,0.559-0.88,1.106c0.059,0.511,0.491,0.887,0.992,0.887 c0.038,0,0.077-0.002,0.115-0.007c0.45-0.051,0.9-0.107,1.348-0.168l3.204-0.433c0.03-0.003,0.06-0.004,0.091-0.008v1.98 l-0.55,0.07l-2,0.27l-1.01,0.14c-6.93,0.92-13.95,0.92-20.88,0l-1.42-0.19l-2.05-0.28L12,20.12v-0.77v-1.21 c0.014,0.002,0.029,0,0.043,0.001l3.25,0.44c0.684,0.092,1.369,0.174,2.054,0.247c0.036,0.004,0.072,0.006,0.108,0.006 c0.504,0,0.938-0.381,0.993-0.894c0.059-0.55-0.339-1.042-0.888-1.101c-0.667-0.071-1.334-0.151-2.001-0.241L14,16.391l0-0.001 V15.1v-0.35c0-2.09,0.47-4.06,1.31-5.76C16.84,5.83,19.61,3.57,22.85,3.1z M14.73,30.6c-0.13-0.43-0.52-0.72-0.96-0.72 c-0.3,0-1.24-0.78-1.74-2.62c-0.23-0.87-0.28-1.76-0.15-2.43c0.11-0.51,0.29-0.71,0.34-0.73c0,0,0.08,0.01,0.27,0.12 c0.3,0.2,0.68,0.22,1,0.06c0.32-0.17,0.52-0.49,0.54-0.85c0.01-0.34,0.04-0.67,0.09-1l1.17,0.15c3.56,0.47,7.13,0.71,10.71,0.71 s7.15-0.24,10.71-0.71l1.18-0.16c0.04,0.32,0.06,0.65,0.08,1.01s0.22,0.68,0.54,0.85c0.32,0.16,0.7,0.14,1.01-0.06 c0.16-0.1,0.24-0.11,0.26-0.12c0.06,0.03,0.24,0.24,0.34,0.73c0.13,0.67,0.08,1.56-0.15,2.43c-0.25,0.92-0.61,1.58-0.95,2 c-0.33,0.42-0.64,0.62-0.79,0.62c-0.44,0-0.83,0.29-0.95,0.72c-0.35,1.17-0.81,2.34-1.38,3.46H28c-0.71,0-1.34,0.37-1.7,0.94 c-0.19,0.3-0.3,0.67-0.3,1.06v2c0,1.1,0.9,2,2,2v1.65C27.35,41.9,26.68,42,26,42c-2.78,0-5.34-1.65-7.36-4.06 c-0.44-0.51-0.84-1.05-1.21-1.61C16.24,34.58,15.32,32.58,14.73,30.6z M26,44c0.68,0,1.35-0.08,2-0.23V50H16V39.467l0.91-0.527 C19.33,41.91,22.5,44,26,44z M11,50c-0.55,0-1-0.45-1-1v-6c0-0.017-0.009-0.032-0.01-0.049L14,40.627V50H11z M3,60 c-0.55,0-1-0.45-1-1v-4v-1.08c0-3.91,2.1-7.56,5.49-9.52L8,44.104V49c0,1.65,1.35,3,3,3h17v7.06c0,0.33,0.05,0.64,0.16,0.94H3z M62,38h-3c-0.552,0-1,0.447-1,1s0.448,1,1,1h1v19.06c0,0.55-0.45,1-1,1h-7.2H31c-0.12,0-0.23-0.02-0.33-0.06 C30.28,59.87,30,59.49,30,59.06V40h17c0.55,0,1-0.45,1-1c0-0.56-0.45-0.94-1-0.94L28,38v-2h34V38z" />
  <path fill="#8d6c9f" d="M51 40h4c.552 0 1-.447 1-1s-.448-1-1-1h-4c-.552 0-1 .447-1 1S50.448 40 51 40zM48 42h-6c-1.654 0-3 1.346-3 3s1.346 3 3 3h6c1.654 0 3-1.346 3-3S49.654 42 48 42zM48 46h-6c-.551 0-1-.448-1-1s.449-1 1-1h6c.551 0 1 .448 1 1S48.551 46 48 46z" />
</svg>