<?xml version="1.0" encoding="utf-8"?>
<svg xmlns="http://www.w3.org/2000/svg" viewBox="0 0 64 64" width="50" height="50">
  <rect width="20" height="20" x="7" y="37" fill="#85cbf8" rx="2" ry="2" />
  <path fill="#6fc6f0" d="M10,47H24a3,3,0,0,1,3,3v5a2,2,0,0,1-2,2H9a2,2,0,0,1-2-2V50A3,3,0,0,1,10,47Z" />
  <rect width="20" height="20" x="37" y="7" fill="#85cbf8" rx="2" ry="2" />
  <path fill="#6fc6f0" d="M40,17H54a3,3,0,0,1,3,3v5a2,2,0,0,1-2,2H39a2,2,0,0,1-2-2V20A3,3,0,0,1,40,17Z" />
  <path fill="#f9dd8f" d="M27 13H37V19H27zM27 45H37V51H27z" />
  <rect width="20" height="20" x="7" y="7" fill="#ed7899" rx="2" ry="2" />
  <rect width="20" height="20" x="37" y="37" fill="#85cbf8" rx="2" ry="2" />
  <path fill="#f9dd8f" d="M13 27H19V37H13zM45 27H51V37H45z" />
  <path fill="#8d6c9f" d="M55,28a3,3,0,0,0,3-3V9a3,3,0,0,0-3-3H39a3,3,0,0,0-3,3v3H28V9a3,3,0,0,0-3-3H9A3,3,0,0,0,6,9V25a3,3,0,0,0,3,3h3v8H9a3,3,0,0,0-3,3V55a3,3,0,0,0,3,3H25a3,3,0,0,0,3-3V52h8v3a3,3,0,0,0,3,3H55a3,3,0,0,0,3-3V39a3,3,0,0,0-3-3H52V28ZM38,9a1,1,0,0,1,1-1H55a1,1,0,0,1,1,1V25a1,1,0,0,1-1,1H39a1,1,0,0,1-1-1Zm6,27H39a3,3,0,0,0-3,3v5H28V39a3,3,0,0,0-3-3H20V28h5a3,3,0,0,0,3-3V20h8v5a3,3,0,0,0,3,3h5ZM36,14v4H28V14ZM8,25V9A1,1,0,0,1,9,8H25a1,1,0,0,1,1,1V25a1,1,0,0,1-1,1H9A1,1,0,0,1,8,25Zm6,3h4v8H14ZM26,55a1,1,0,0,1-1,1H9a1,1,0,0,1-1-1V39a1,1,0,0,1,1-1H25a1,1,0,0,1,1,1Zm2-5V48.06s0,0,0-.06V46h8v4ZM56,39V55a1,1,0,0,1-1,1H39a1,1,0,0,1-1-1V39a1,1,0,0,1,1-1H55A1,1,0,0,1,56,39Zm-6-3H46V28h4Z" />
  <path fill="#8d6c9f" d="M12 45a1 1 0 0 0-1 1v2a1 1 0 0 0 2 0V46A1 1 0 0 0 12 45zM17 45a1 1 0 0 0-1 1v2a1 1 0 0 0 2 0V46A1 1 0 0 0 17 45zM22 45a1 1 0 0 0-1 1v2a1 1 0 0 0 2 0V46A1 1 0 0 0 22 45zM42 19a1 1 0 0 0 1-1V16a1 1 0 0 0-2 0v2A1 1 0 0 0 42 19zM47 19a1 1 0 0 0 1-1V16a1 1 0 0 0-2 0v2A1 1 0 0 0 47 19zM52 19a1 1 0 0 0 1-1V16a1 1 0 0 0-2 0v2A1 1 0 0 0 52 19z" />
</svg>