<?xml version="1.0" encoding="utf-8"?>
<svg xmlns="http://www.w3.org/2000/svg" viewBox="0 0 64 64" width="50" height="50">
  <path fill="#faefde" d="M17.32,5H46.07a3,3,0,0,1,3,3V56a3,3,0,0,1-3,3h-38a3,3,0,0,1-3-3V17.21A3,3,0,0,1,6,15.09L15.2,5.85A3,3,0,0,1,17.32,5Z" />
  <path fill="#fff7f0" d="M5.07 59.03L4.93 49.57 48.41 6.09 49.07 29.03 19.07 59.03 5.07 59.03zM4.93 39.18L39.14 4.97 44.89 5.22 5.07 45.03 4.93 39.18zM4.93 33.18L33.07 5.03 36.07 5.03 4.93 36.18 4.93 33.18z" />
  <path fill="#fff" d="M39.58 13.03L40.81 15.29 43.08 16.53 40.81 17.77 39.58 20.03 38.34 17.77 36.07 16.53 38.34 15.29 39.58 13.03zM24.49 11.03L25.35 12.6 26.91 13.45 25.35 14.3 24.49 15.87 23.64 14.3 22.07 13.45 23.64 12.6 24.49 11.03zM10.72 42.03L11.3 43.1 12.37 43.68 11.3 44.26 10.72 45.33 10.14 44.26 9.07 43.68 10.14 43.1 10.72 42.03z" />
  <path fill="#bbdef9" d="M17.07 5.03L17.07 17.03 5.07 17.03 17.07 5.03z" />
  <path fill="#85cbf8" d="M15.07 23.03H59.07V45.03H15.07z" />
  <path fill="#8d6c9f" d="M9 52a1 1 0 0 0-1 1v2a1 1 0 0 0 2 0V53A1 1 0 0 0 9 52zM14 52a1 1 0 0 0-1 1v2a1 1 0 0 0 2 0V53A1 1 0 0 0 14 52zM19 56a1 1 0 0 0 1-1V53a1 1 0 0 0-2 0v2A1 1 0 0 0 19 56zM24 56a1 1 0 0 0 1-1V53a1 1 0 0 0-2 0v2A1 1 0 0 0 24 56zM29 56a1 1 0 0 0 1-1V53a1 1 0 0 0-2 0v2A1 1 0 0 0 29 56zM34 56a1 1 0 0 0 1-1V53a1 1 0 0 0-2 0v2A1 1 0 0 0 34 56zM39 56a1 1 0 0 0 1-1V53a1 1 0 0 0-2 0v2A1 1 0 0 0 39 56zM44 56a1 1 0 0 0 1-1V53a1 1 0 0 0-2 0v2A1 1 0 0 0 44 56z" />
  <path fill="#8d6c9f" d="M58,22H50V7a3,3,0,0,0-3-3H17.66a5,5,0,0,0-3.54,1.46L5.46,14.12A5,5,0,0,0,4,17.66V57a3,3,0,0,0,3,3H47a3,3,0,0,0,3-3V46h8a2,2,0,0,0,2-2V24A2,2,0,0,0,58,22ZM15.54,6.88A3,3,0,0,1,16,6.5V15a1,1,0,0,1-1,1H6.5a2.86,2.86,0,0,1,.38-.46ZM48,57a1,1,0,0,1-1,1H7a1,1,0,0,1-1-1V18h9a3,3,0,0,0,3-3V6H47a1,1,0,0,1,1,1V22H16a2,2,0,0,0-2,2V44a2,2,0,0,0,2,2H48ZM58,44H16V24H58Z" />
  <path fill="#fff" d="M41 38H37V29a1 1 0 0 0-2 0V39a1 1 0 0 0 1 1h5a1 1 0 0 0 0-2zM31.51 28.14a1 1 0 0 0-1.37.34L28 32.06l-2.14-3.57a1 1 0 0 0-1.71 1L26.83 34l-2.69 4.49a1 1 0 0 0 1.71 1L28 35.94l2.14 3.57a1 1 0 1 0 1.71-1L29.17 34l2.69-4.49A1 1 0 0 0 31.51 28.14zM46 28a3 3 0 0 0-3 3v1a3 3 0 0 0 3 3h2a1 1 0 0 1 1 1v1a1 1 0 0 1-1 1H46a1 1 0 0 1-1-1 1 1 0 0 0-2 0 3 3 0 0 0 3 3h2a3 3 0 0 0 3-3V36a3 3 0 0 0-3-3H46a1 1 0 0 1-1-1V31a1 1 0 0 1 1-1h2a1 1 0 0 1 1 1 1 1 0 0 0 2 0 3 3 0 0 0-3-3z" />
</svg>